<svg width="118" height="109" viewBox="0 0 118 109" fill="none" xmlns="http://www.w3.org/2000/svg">
<path fill-rule="evenodd" clip-rule="evenodd" d="M60.4865 36.4261C58.2066 42.6931 56.24 56.7454 57.2423 69.8702C57.7505 76.5243 59.019 82.8944 61.3674 87.8688C63.7139 92.8391 67.1071 96.3575 71.8499 97.4506C81.4546 99.6643 91.5241 93.4517 99.8639 84.1199C108.102 74.9025 114.495 62.8075 116.883 53.4163C108.205 43.941 99.1648 38.8629 89.7752 36.5653C80.3982 34.2708 70.6379 34.7407 60.4865 36.4261ZM90.0171 35.58C99.6844 37.9455 108.96 43.1929 117.818 52.9348L118 53.135L117.935 53.3975C115.557 63.0017 109.035 75.3818 100.622 84.7953C92.2346 94.1806 81.8069 100.787 71.6212 98.4392C66.4687 97.2516 62.8725 93.4366 60.4481 88.3013C58.0256 83.1701 56.7418 76.6625 56.229 69.9473C55.2042 56.527 57.2478 42.0959 59.6372 35.7947L59.7404 35.5225L60.028 35.4741C70.3483 33.7385 80.3604 33.217 90.0171 35.58Z" fill="#68AAF2"/>
<path fill-rule="evenodd" clip-rule="evenodd" d="M0.173649 40.2199C17.2442 18.7688 42.3974 13.3406 56.7161 16.5977L57.0138 16.6654L62.0377 35.1667L61.0568 35.4321L56.1931 17.5209C42.2586 14.5041 17.8528 19.8122 1.1442 40.6322C3.95582 48.5027 11.6017 59.91 20.7408 68.5488C25.3577 72.913 30.3298 76.5455 35.2209 78.6597C40.107 80.7716 44.8634 81.3492 49.1068 79.6953C52.2395 78.2693 53.8869 76.3016 54.7548 74.7095C55.191 73.9094 55.9523 71.2563 56.0846 70.7509C56.1507 70.4982 56.1893 70.2972 56.2112 70.1623C56.2221 70.0948 56.2288 70.0439 56.2327 70.0114C56.2342 69.9984 56.2353 69.9884 56.236 69.9814L56.2365 69.9768L56.2371 69.9706C56.2371 69.9706 56.2371 69.9711 56.7436 70.0116C57.2501 70.052 57.25 70.0527 57.25 70.0527L57.2498 70.0553L57.2494 70.0606L57.2478 70.0767C57.2465 70.09 57.2446 70.1082 57.2418 70.1312C57.2364 70.1772 57.2277 70.2421 57.2144 70.3242C57.1878 70.4882 57.1428 70.7209 57.0679 71.0073C56.9181 71.5797 56.1288 74.3115 55.6474 75.1945C54.6814 76.9665 52.8723 79.0997 49.5152 80.6244L49.5028 80.6301L49.4901 80.635C44.908 82.4261 39.8546 81.768 34.8171 79.5906C29.7798 77.4133 24.7096 73.6976 20.042 69.2855C10.7142 60.4683 2.8908 48.7698 0.0913683 40.7015L0 40.4381L0.173649 40.2199Z" fill="#68AAF2"/>
<path fill-rule="evenodd" clip-rule="evenodd" d="M81.7205 61.0007C83.4575 58.4481 84.7779 55.5149 85.4587 53.5995L86.4164 53.9388C85.7135 55.9163 84.3573 58.9313 82.5612 61.5708C81.6628 62.8911 80.6447 64.1317 79.5315 65.1026C78.5529 65.9562 77.4811 66.6184 76.3353 66.9277C76.4358 67.5055 76.6686 68.2344 77.0947 68.8844C77.6259 69.6948 78.445 70.3693 79.6971 70.5119L79.582 71.5198C77.9713 71.3365 76.9059 70.4493 76.2443 69.4399C75.5921 68.445 75.3207 67.3189 75.268 66.5699L75.2362 66.1163L75.6844 66.0353C76.7657 65.8399 77.834 65.2361 78.8629 64.3386C79.8899 63.4429 80.8524 62.2764 81.7205 61.0007Z" fill="#68AAF2"/>
<path fill-rule="evenodd" clip-rule="evenodd" d="M88.3245 55.6263L89.3056 56.4183C90.5762 57.4439 92.9164 58.9561 95.7664 60.118C98.6183 61.2806 101.94 62.0761 105.19 61.7177L106.935 61.5254L105.563 62.6184C103.173 64.5229 99.4056 66.6037 95.9534 66.4417C94.1982 66.3593 92.5241 65.6956 91.1882 64.1516C89.8647 62.622 88.9095 60.2707 88.4819 56.876L88.3245 55.6263ZM89.6743 57.9625C90.1418 60.5679 90.9594 62.3352 91.9572 63.4885C93.0904 64.7982 94.4913 65.3574 96.0011 65.4283C98.5247 65.5467 101.347 64.2964 103.565 62.8189C100.674 62.8159 97.8343 62.0568 95.3822 61.0572C93.0687 60.114 91.0752 58.9466 89.6743 57.9625Z" fill="#68AAF2"/>
<path fill-rule="evenodd" clip-rule="evenodd" d="M65.1202 47.8083L66.032 47.3961C67.5445 49.6075 70.4408 50.9905 73.5576 51.7995C76.6551 52.6036 79.8621 52.8129 81.8586 52.7584L83.0257 52.7265L82.2537 53.6009C79.9219 56.2419 77.7733 57.6621 75.8033 58.1443C73.8103 58.6322 72.0649 58.1441 70.6032 57.1107C69.157 56.0882 67.9895 54.5355 67.0874 52.8717C66.1828 51.2033 65.5273 49.3902 65.1202 47.8083ZM66.7734 49.6967C67.1051 50.5984 67.5081 51.5163 67.9811 52.3888C68.8426 53.9777 69.9189 55.3837 71.1906 56.2828C72.4469 57.1709 73.8938 57.5672 75.5613 57.159C77.054 56.7936 78.7725 55.7715 80.7095 53.7757C78.6744 53.7364 75.9543 53.4699 73.3018 52.7814C70.9274 52.165 68.5464 51.1948 66.7734 49.6967Z" fill="#68AAF2"/>
<path fill-rule="evenodd" clip-rule="evenodd" d="M64.4771 40.7208C75.7757 37.9953 82.156 44.5152 83.9428 48.1928L83.0284 48.6355C81.4066 45.2975 75.4593 39.1153 64.7158 41.7069L64.4771 40.7208ZM91.6812 50.2952C100.24 46.9801 107.916 51.6755 110.686 54.4239L109.97 55.1435C107.343 52.5377 100.078 48.1312 92.0488 51.241L91.6812 50.2952Z" fill="#68AAF2"/>
<path fill-rule="evenodd" clip-rule="evenodd" d="M79.3057 76.923C83.4944 79.143 86.4793 83.846 88.4459 89.0995L89.0586 90.7362L87.6632 89.6815C79.0602 83.1792 72.2294 80.9182 63.5574 80.5387L62.0793 80.474L63.2853 79.6184C69.7298 75.0463 75.0603 74.6729 79.3057 76.923ZM65.1107 79.6115C70.7661 76.0006 75.2807 75.9384 78.8292 77.8191C82.2733 79.6445 84.9282 83.3586 86.8354 87.8108C79.2243 82.3517 72.8194 80.1615 65.1107 79.6115Z" fill="#68AAF2"/>
<path fill-rule="evenodd" clip-rule="evenodd" d="M54.1289 50.9426L53.9225 52.8103C53.4498 57.0872 52.4776 65.8327 44.4515 69.2164C40.5863 70.846 36.5114 70.764 32.9801 69.9085C29.4539 69.0543 26.4264 67.4187 24.6312 65.8807L23.512 64.9219L24.9853 64.9891C28.3392 65.1419 33.4443 64.5857 38.6689 62.6937C43.8908 60.8027 49.2 57.5896 53.009 52.4529L54.1289 50.9426ZM26.5029 66.0243C28.1944 67.1639 30.5495 68.2757 33.2198 68.9226C36.6004 69.7416 40.4427 69.8052 44.0562 68.2818C50.5484 65.5447 52.092 58.9957 52.6999 54.4738C48.8603 58.9912 43.8784 61.8864 39.0155 63.6474C34.4142 65.3136 29.8959 65.9733 26.5029 66.0243Z" fill="#68AAF2"/>
<path fill-rule="evenodd" clip-rule="evenodd" d="M32.5461 44.2117C32.1324 41.7668 31.2656 39.2783 30.5941 37.7396L31.5257 37.3344C32.2215 38.9285 33.1174 41.4974 33.5481 44.0427C33.7635 45.3156 33.8659 46.6014 33.76 47.7661C33.6544 48.9265 33.3381 50.0106 32.6754 50.8338C31.9684 51.712 31.8807 52.1952 31.9317 52.4229C31.9736 52.6102 32.1667 52.825 32.742 52.9946C33.2929 53.157 34.0318 53.226 34.836 53.2503C35.3914 53.267 35.9488 53.2621 36.4752 53.2576C36.7098 53.2555 36.9382 53.2535 37.1575 53.2535V54.268C36.9554 54.268 36.737 54.2699 36.5081 54.2719C35.9732 54.2765 35.381 54.2817 34.8053 54.2643C33.9846 54.2396 33.1367 54.1688 32.4542 53.9675C31.7962 53.7735 31.1093 53.4009 30.9399 52.6442C30.7795 51.9277 31.1491 51.1102 31.8833 50.1983C32.3736 49.5892 32.6522 48.7266 32.7479 47.6744C32.8431 46.6264 32.7529 45.4339 32.5461 44.2117Z" fill="#68AAF2"/>
<path fill-rule="evenodd" clip-rule="evenodd" d="M42.9895 30.855C46.2817 29.3412 50.3123 29.5524 53.7461 32.4563L54.8036 33.3506H53.4177C49.1072 33.3506 45.1314 34.987 42.2138 36.6454C40.7586 37.4726 39.5761 38.2999 38.7584 38.9196C38.3498 39.2293 38.0328 39.4867 37.8191 39.6657C37.7122 39.7552 37.6312 39.8251 37.5775 39.8721C37.5506 39.8955 37.5306 39.9133 37.5175 39.9249L37.5033 39.9377L37.5001 39.9405L36.4723 40.8752L36.6537 39.4998C37.1716 35.573 39.7132 32.3615 42.9895 30.855ZM37.9371 38.2698C38.0033 38.2186 38.0723 38.1658 38.1439 38.1115C38.9895 37.4707 40.2094 36.6173 41.7109 35.7638C44.384 34.2444 47.9794 32.7074 51.9602 32.3939C49.1258 30.5747 46.0171 30.5798 43.4147 31.7765C40.833 32.9635 38.7471 35.3258 37.9371 38.2698Z" fill="#68AAF2"/>
<path fill-rule="evenodd" clip-rule="evenodd" d="M20.2929 40.1688C24.0055 39.7079 27.866 40.9935 30.2858 42.3049L30.0387 43.2579C21.1201 43.1772 14.3265 47.133 12.084 49.0794L10.7581 50.2302L11.264 48.5505C12.1083 45.7472 13.4141 43.7617 15.0012 42.4185C16.5883 41.0755 18.4263 40.4006 20.2929 40.1688ZM12.8009 47.2632C15.674 45.3072 21.0675 42.7219 27.8643 42.3012C25.7012 41.4526 22.9995 40.8552 20.4183 41.1756C18.7135 41.3872 17.0703 41.9976 15.6584 43.1924C14.547 44.133 13.56 45.4516 12.8009 47.2632Z" fill="#68AAF2"/>
<path fill-rule="evenodd" clip-rule="evenodd" d="M42.7131 22.549C45.8217 21.4377 48.76 21.7492 50.5427 22.3973L50.195 23.3505C48.6183 22.7774 45.9248 22.4784 43.0557 23.5041C40.2037 24.5237 37.1387 26.8667 34.8199 31.6431L33.9054 31.2007C36.3291 26.208 39.5876 23.6664 42.7131 22.549ZM17.1834 32.4826C20.7519 31.983 24.1498 33.098 26.1989 34.2798L25.6905 35.1582C23.7874 34.0606 20.6169 33.0263 17.3245 33.4873C14.0676 33.9433 10.6296 35.8695 8.13972 40.8085L7.23194 40.3525C9.86398 35.1315 13.5794 32.9872 17.1834 32.4826Z" fill="#68AAF2"/>
<path fill-rule="evenodd" clip-rule="evenodd" d="M62.5636 63.9143C64.2474 63.9143 65.6124 62.5516 65.6124 60.8707C65.6124 59.1898 64.2474 57.8272 62.5636 57.8272C60.8798 57.8272 59.5149 59.1898 59.5149 60.8707C59.5149 62.5516 60.8798 63.9143 62.5636 63.9143ZM62.5636 64.9288C64.8087 64.9288 66.6287 63.1119 66.6287 60.8707C66.6287 58.6295 64.8087 56.8127 62.5636 56.8127C60.3186 56.8127 58.4986 58.6295 58.4986 60.8707C58.4986 63.1119 60.3186 64.9288 62.5636 64.9288Z" fill="#68AAF2"/>
<path fill-rule="evenodd" clip-rule="evenodd" d="M22.9294 11.1596C25.7357 11.1596 28.0107 8.88857 28.0107 6.08707C28.0107 3.28558 25.7357 1.01451 22.9294 1.01451C20.1231 1.01451 17.8481 3.28558 17.8481 6.08707C17.8481 8.88857 20.1231 11.1596 22.9294 11.1596ZM22.9294 12.1741C26.297 12.1741 29.027 9.44887 29.027 6.08707C29.027 2.72528 26.297 0 22.9294 0C19.5618 0 16.8318 2.72528 16.8318 6.08707C16.8318 9.44887 19.5618 12.1741 22.9294 12.1741Z" fill="#68AAF2"/>
<path fill-rule="evenodd" clip-rule="evenodd" d="M105.755 99.4222C108.28 99.4222 110.328 97.3783 110.328 94.8569C110.328 92.3356 108.28 90.2916 105.755 90.2916C103.229 90.2916 101.182 92.3356 101.182 94.8569C101.182 97.3783 103.229 99.4222 105.755 99.4222ZM105.755 100.437C108.842 100.437 111.344 97.9386 111.344 94.8569C111.344 91.7753 108.842 89.2771 105.755 89.2771C102.668 89.2771 100.165 91.7753 100.165 94.8569C100.165 97.9386 102.668 100.437 105.755 100.437Z" fill="#68AAF2"/>
<path fill-rule="evenodd" clip-rule="evenodd" d="M8.19361 86.2336C10.06 86.2336 11.7505 84.5199 11.7505 82.1755C11.7505 79.8311 10.06 78.1174 8.19361 78.1174C6.32725 78.1174 4.6367 79.8311 4.6367 82.1755C4.6367 84.5199 6.32725 86.2336 8.19361 86.2336ZM8.19361 87.2481C10.7193 87.2481 12.7668 84.977 12.7668 82.1755C12.7668 79.374 10.7193 77.1029 8.19361 77.1029C5.66792 77.1029 3.62043 79.374 3.62043 82.1755C3.62043 84.977 5.66792 87.2481 8.19361 87.2481Z" fill="#68AAF2"/>
<path fill-rule="evenodd" clip-rule="evenodd" d="M101.182 76.0884C102.756 76.0884 104.543 74.6143 104.543 72.5377C104.543 70.461 102.756 68.9868 101.182 68.9868C99.607 68.9868 97.8069 70.461 97.8069 72.5376C97.8069 74.6143 99.607 76.0884 101.182 76.0884ZM101.182 77.1029C103.427 77.1029 105.56 75.059 105.56 72.5377C105.56 70.0163 103.427 67.9723 101.182 67.9723C98.9365 67.9723 96.7906 70.0163 96.7906 72.5376C96.7906 75.059 98.9365 77.1029 101.182 77.1029Z" fill="#68AAF2"/>
<path fill-rule="evenodd" clip-rule="evenodd" d="M55.2712 37.0299C53.5431 37.0115 51.8929 38.3369 51.8929 40.743C51.8929 41.8746 52.5997 42.9723 53.6411 43.6047C54.6707 44.23 56.5 44 58 43V44C56.4716 44.9418 54.4102 45.2593 53.1129 44.4714C51.8274 43.6907 50.8766 42.2926 50.8766 40.743C50.8766 37.7868 52.9741 35.9909 55.282 36.0154C56.4099 36.0274 57.3069 36.4226 57.9166 36.8089C58.5263 37.1952 59.0758 37.8533 59.2378 38C59.319 38.0735 59.3819 38.1357 59.4258 38.1812C59.4478 38.2039 59.4651 38.2224 59.4776 38.2361L59.4927 38.2529L59.4975 38.2584L59.4993 38.2604L59.5 38.2612C59.5 38.2612 59.5006 38.2618 59.1161 38.5934C58.7315 38.925 58.7318 38.9253 58.7318 38.9253L58.7265 38.9195C58.7204 38.9128 58.7098 38.9014 58.6949 38.8861C58.6652 38.8553 58.6182 38.8087 58.555 38.7514C58.4281 38.6365 57.6201 37.8226 57.372 37.6654C56.8752 37.3506 56.1612 37.0393 55.2712 37.0299Z" fill="#68AAF2"/>
<path fill-rule="evenodd" clip-rule="evenodd" d="M18.3562 59.8562C20.3207 59.8562 21.9132 58.2665 21.9132 56.3054C21.9132 54.3444 20.3207 52.7546 18.3562 52.7546C16.3918 52.7546 14.7993 54.3444 14.7993 56.3054C14.7993 58.2665 16.3918 59.8562 18.3562 59.8562ZM18.3562 60.8707C20.8819 60.8707 22.9294 58.8268 22.9294 56.3054C22.9294 53.7841 20.8819 51.7401 18.3562 51.7401C15.8305 51.7401 13.7831 53.7841 13.7831 56.3054C13.7831 58.8268 15.8305 60.8707 18.3562 60.8707Z" fill="#68AAF2"/>
<path fill-rule="evenodd" clip-rule="evenodd" d="M85.4292 4.69283L88.4252 12.35L96.6197 15.2177L88.4252 18.0854L85.4292 25.7425L82.4332 18.0854L74.2387 15.2177L82.4332 12.35L85.4292 4.69283ZM85.4292 7.48131L83.21 13.1532L77.3107 15.2177L83.21 17.2822L85.4292 22.9541L87.6484 17.2822L93.5477 15.2177L87.6484 13.1532L85.4292 7.48131Z" fill="#68AAF2"/>
<path fill-rule="evenodd" clip-rule="evenodd" d="M34.1086 87.8154L36.9745 95.5468L44.7192 98.4077L36.9745 101.269L34.1086 109L31.2428 101.269L23.4981 98.4077L31.2428 95.5468L34.1086 87.8154ZM34.1086 90.7388L32.0338 96.3364L26.4265 98.4077L32.0338 100.479L34.1086 106.077L36.1835 100.479L41.7908 98.4077L36.1835 96.3364L34.1086 90.7388Z" fill="#68AAF2"/>
</svg>
