<svg width="105" height="120" viewBox="0 0 105 120" fill="none" xmlns="http://www.w3.org/2000/svg">
<path fill-rule="evenodd" clip-rule="evenodd" d="M78.062 32.4336L77.8842 32.5149L76.6052 32.069L76.6652 31.6653C76.8018 30.7449 77.1606 29.4275 77.8895 28.3638C78.631 27.2818 79.7883 26.4273 81.4657 26.5993C82.2154 26.6761 82.7857 26.8498 83.1356 27.1756C83.323 27.35 83.4424 27.5642 83.4841 27.805C83.5244 28.0376 83.4864 28.2606 83.4192 28.4545C83.289 28.8305 83.0176 29.186 82.7555 29.4754C82.4855 29.7734 82.1843 30.0451 81.9494 30.2499C81.4349 30.6983 80.4379 31.2507 79.6206 31.6719C79.2018 31.8878 78.8128 32.0779 78.5287 32.214C78.3865 32.2821 78.2703 32.3367 78.1894 32.3745L78.0958 32.418L78.0709 32.4295L78.062 32.4336ZM77.8335 31.4565C77.9065 31.4223 77.9997 31.3782 78.1087 31.326C78.387 31.1928 78.767 31.007 79.1751 30.7967C80.0116 30.3655 80.8995 29.864 81.3096 29.5065C81.537 29.3083 81.8031 29.067 82.0332 28.8129C82.2713 28.5501 82.4329 28.3143 82.4964 28.1308C82.5262 28.045 82.5253 27.9962 82.5214 27.9739C82.5189 27.9596 82.5129 27.9356 82.472 27.8975C82.3654 27.7982 82.0679 27.6495 81.3666 27.5776C80.1419 27.452 79.2958 28.044 78.6941 28.9221C78.1729 29.6826 77.8607 30.6303 77.7022 31.4107L77.8335 31.4565Z" fill="#68AAF2"/>
<path fill-rule="evenodd" clip-rule="evenodd" d="M15.0308 90.9897C21.2721 107.146 36.4632 118.525 54.1826 118.525C71.902 118.525 87.0932 107.146 93.3345 90.9897H15.0308ZM13.984 90.9897C13.8612 90.6637 13.7419 90.3359 13.6263 90.0063H94.7389C94.6233 90.3359 94.5041 90.6637 94.3813 90.9897C88.0911 107.685 72.4643 119.508 54.1826 119.508C35.9009 119.508 20.2742 107.685 13.984 90.9897Z" fill="#68AAF2"/>
<path fill-rule="evenodd" clip-rule="evenodd" d="M54.1826 119.017C67.6459 119.017 79.1468 109.755 83.5262 96.7326L84.4519 97.0478C79.9552 110.419 68.1158 120 54.1826 120C40.2494 120 28.41 110.419 23.9133 97.0478L24.839 96.7326C29.2184 109.755 40.7193 119.017 54.1826 119.017Z" fill="#68AAF2"/>
<path fill-rule="evenodd" clip-rule="evenodd" d="M63.7243 112.865C66.4773 108.934 68.6352 103.352 69.8269 96.8017L70.7882 96.9788C69.5789 103.625 67.3797 109.352 64.5232 113.431C61.6713 117.503 58.1108 120 54.1826 120C50.2544 120 46.6942 117.503 43.8423 113.431C40.9858 109.352 38.7865 103.625 37.5773 96.9788L38.5386 96.8017C39.7303 103.352 41.8882 108.934 44.6412 112.865C47.3988 116.802 50.7003 119.017 54.1826 119.017C57.6649 119.017 60.9667 116.802 63.7243 112.865Z" fill="#68AAF2"/>
<path fill-rule="evenodd" clip-rule="evenodd" d="M67.6897 90.0063H86.0794C89.6507 87.9065 91.7492 85.2557 92.8263 82.4646C93.9306 79.6032 93.9874 76.5251 93.3604 73.6347C92.7326 70.7408 91.4273 68.0763 89.8648 66.0759C88.2789 64.0456 86.5356 62.8309 85.0875 62.5855C81.9039 62.0461 78.7949 63.4739 75.9087 65.7696C73.0326 68.0571 70.5441 71.0731 68.627 73.4136C66.9327 75.4818 66.3435 78.3972 66.4024 81.5861C66.4558 84.4773 67.0398 87.4707 67.6897 90.0063ZM86.3408 90.9897H66.9375C65.476 85.5697 64.0545 77.4494 67.8729 72.7881C71.6912 68.1267 78.0752 60.4001 85.2498 61.6157C92.4244 62.8314 101.886 82.0999 86.3408 90.9897Z" fill="#68AAF2"/>
<path fill-rule="evenodd" clip-rule="evenodd" d="M98.1585 44.3258L99.0321 45.4507C105.381 53.6247 105.961 60.7226 104.012 66.2851C102.076 71.8091 97.6768 75.7269 94.2167 77.6525L93.7438 76.7919C97.0582 74.9474 101.255 71.1941 103.09 65.958C104.83 60.9944 104.477 54.6137 99.0619 47.1229C98.838 49.0869 98.0269 51.3777 95.6092 54.4195C94.1565 56.2471 92.8836 58.1703 92.3074 60.566C91.7332 62.9535 91.839 65.8631 93.2424 69.6759L92.326 70.0175C90.8691 66.0593 90.729 62.9482 91.3576 60.3347C91.9842 57.7292 93.3632 55.6707 94.846 53.8052C97.7163 50.1941 98.1585 47.7897 98.1585 45.7535V44.3258Z" fill="#68AAF2"/>
<path fill-rule="evenodd" clip-rule="evenodd" d="M99.476 60.1581C99.9774 54.7784 99.3208 49.5694 98.6581 46.3449L99.6152 46.1457C100.291 49.4343 100.962 54.7453 100.449 60.2499C99.9366 65.7484 98.2358 71.5056 94.1048 75.6056L93.4186 74.9054C97.3181 71.0352 98.9741 65.5439 99.476 60.1581Z" fill="#68AAF2"/>
<path fill-rule="evenodd" clip-rule="evenodd" d="M73.7762 33.0595C74.7561 32.195 75.8708 31.7101 77.2473 31.9961C78.4725 32.2507 79.4151 32.6297 80.1329 33.166C80.8588 33.7083 81.3263 34.3902 81.6317 35.198C81.9326 35.9938 82.0756 36.9105 82.1651 37.9273C82.2233 38.5896 82.2605 39.3191 82.3003 40.1016C82.3212 40.5143 82.343 40.9417 82.369 41.3818C82.4394 42.5733 82.9694 43.9926 83.7283 45.6381C84.045 46.3249 84.3952 47.0382 84.7599 47.7812C84.8288 47.9213 84.8981 48.0625 84.9678 48.2048C85.4056 49.0984 85.857 50.0306 86.2814 50.9905C87.9724 54.8155 89.2872 59.1877 87.6101 63.6129L86.697 63.2625C88.2278 59.2232 87.0591 55.1691 85.3885 51.3903C84.9725 50.4493 84.5284 49.5319 84.0913 48.6397C84.0224 48.4991 83.9536 48.359 83.8851 48.2196C83.5205 47.4768 83.164 46.7508 82.8418 46.0521C82.0823 44.4051 81.4759 42.8357 81.3934 41.4401C81.3662 40.979 81.344 40.5417 81.3229 40.1254C81.2838 39.3567 81.2484 38.6592 81.1916 38.014C81.1045 37.0244 80.9708 36.2155 80.7183 35.5477C80.4704 34.8918 80.1077 34.3719 79.5503 33.9555C78.9847 33.533 78.1908 33.1963 77.0496 32.9592C76.0597 32.7535 75.2458 33.0708 74.4205 33.7989C73.5706 34.5487 72.7644 35.6856 71.8174 37.0355L71.7552 37.1241C69.9003 39.7684 67.5843 43.0701 63.5976 44.9151C56.01 48.4266 49.7955 57.3639 53.1697 70.2129L52.2249 70.4642C48.7232 57.1295 55.1925 47.7225 63.1892 44.0217C66.9364 42.2875 69.1223 39.1719 70.9986 36.4974L71.019 36.4683C71.9451 35.1484 72.8208 33.9023 73.7762 33.0595Z" fill="#68AAF2"/>
<path fill-rule="evenodd" clip-rule="evenodd" d="M51.5648 69.6971C57.9804 71.3948 63.1357 75.3751 66.2719 78.8587L65.5476 79.519C62.5041 76.1383 57.5045 72.2857 51.3163 70.6482C45.1493 69.0163 37.7703 69.5742 29.9025 75.0538C24.6482 78.7134 22.7657 82.6886 22.1735 85.7126C21.876 87.2317 21.9017 88.5237 22.0005 89.4322C22.0499 89.8862 22.1176 90.2437 22.1719 90.4847C22.1991 90.6052 22.2229 90.6964 22.2394 90.7559C22.2476 90.7857 22.2541 90.8075 22.2581 90.8211L22.2625 90.8352L22.2631 90.8372C22.2631 90.8372 22.2629 90.8366 21.7985 90.9896C21.3341 91.1425 21.3339 91.1418 21.3339 91.1418L21.3328 91.1384L21.3305 91.131L21.323 91.1067C21.3168 91.0862 21.3083 91.0572 21.2981 91.0201C21.2775 90.946 21.2497 90.8392 21.2189 90.7023C21.1572 90.4286 21.0829 90.0341 21.0291 89.5392C20.9214 88.5498 20.8948 87.1558 21.2147 85.5225C21.8571 82.2419 23.8876 78.0471 29.3464 74.2452C37.4541 68.5984 45.128 67.9938 51.5648 69.6971Z" fill="#68AAF2"/>
<path fill-rule="evenodd" clip-rule="evenodd" d="M26.4446 63.3404C29.1909 66.0856 30.4197 70.6393 30.7266 73.719L29.7542 73.8171C29.4561 70.8263 28.2651 66.5463 25.7559 64.0381C24.5175 62.8002 22.9662 62.0002 21.0263 61.9799C19.0731 61.9594 16.6657 62.7287 13.7293 64.7563C10.809 66.7727 9.16527 68.9863 8.47851 71.21C7.79254 73.431 8.04373 75.7188 9.01705 77.9213C10.9734 82.3484 15.833 86.3801 21.6164 88.5625L21.2733 89.4833C15.3292 87.2403 10.2188 83.061 8.1241 78.3209C7.07186 75.9398 6.77721 73.405 7.54528 70.9181C8.31256 68.4337 10.1227 66.054 13.1764 63.9455C16.2139 61.8481 18.8163 60.9732 21.0364 60.9965C23.2697 61.0199 25.0552 61.9516 26.4446 63.3404Z" fill="#68AAF2"/>
<path fill-rule="evenodd" clip-rule="evenodd" d="M39.9828 67.8597C40.4456 68.2482 40.8903 68.6216 41.3083 68.981L40.6734 69.7287C40.2701 69.3818 39.836 69.0176 39.3802 68.6352C37.0132 66.6494 34.0621 64.1734 31.81 61.1008C29.1062 57.4117 27.3734 52.8186 28.7886 47.1094L29.7368 47.3474C28.4106 52.6977 30.0146 56.9944 32.5965 60.517C34.7715 63.4845 37.6145 65.8714 39.9828 67.8597Z" fill="#68AAF2"/>
<path fill-rule="evenodd" clip-rule="evenodd" d="M1.89902 31.0024L1.41465 31.0672L1.26404 29.9273L2.18555 30.6041L2.18662 30.6049L2.2009 30.6147C2.21547 30.6246 2.24026 30.6409 2.27607 30.6633C2.3477 30.7081 2.46345 30.7767 2.62971 30.8649C2.96226 31.0413 3.49683 31.2959 4.28459 31.5936C5.85876 32.1884 8.44193 32.9547 12.4405 33.6138C19.5523 34.4007 23.6645 37.7727 26.0383 41.9807C28.3943 46.1571 29.0162 51.1181 29.2614 55.0649L29.2877 55.4892L28.8744 55.5768C16.7421 58.1471 8.68574 49.77 5.6275 44.7567C4.07861 42.2177 3.02823 38.7813 2.36599 36.0129C2.03337 34.6225 1.79587 33.3882 1.64145 32.5013C1.56422 32.0576 1.5077 31.7004 1.4704 31.4536C1.45175 31.3301 1.43791 31.2342 1.42868 31.1688L1.41827 31.094L1.41562 31.0745L1.41465 31.0672C1.41465 31.0672 1.41465 31.0672 1.89902 31.0024ZM2.53354 31.9167C2.5547 32.0444 2.57818 32.183 2.60405 32.3316C2.7558 33.2032 2.98931 34.4167 3.31611 35.7828C3.9727 38.5275 4.99477 41.8397 6.46035 44.2422C9.39527 49.0534 16.9566 56.8666 28.2581 54.6982C27.996 50.8624 27.3474 46.2933 25.1884 42.4662C22.9679 38.5298 19.1284 35.3397 12.3212 34.5899L12.3083 34.5885L12.2955 34.5863C8.23762 33.9183 5.58693 33.1362 3.94102 32.5142C3.34788 32.2901 2.88497 32.0866 2.53354 31.9167Z" fill="#68AAF2"/>
<path fill-rule="evenodd" clip-rule="evenodd" d="M44.2035 1.38978L43.7275 1.50067C44.2035 1.38978 44.2035 1.38978 44.2035 1.38978L44.2038 1.39126L44.2046 1.39445L44.2072 1.40591L44.2167 1.44889C44.2249 1.48636 44.2367 1.54132 44.2515 1.613C44.2812 1.75633 44.323 1.96651 44.3722 2.23713C44.4706 2.77832 44.5988 3.56161 44.7191 4.53582C44.9596 6.48338 45.1693 9.19862 45.0454 12.2707C44.8228 17.7893 43.5212 24.516 39.3301 29.9963C39.7897 29.7986 40.2683 29.6064 40.7668 29.4204C42.1329 28.9104 43.7929 27.6093 45.3478 25.9747C46.8935 24.3498 48.2837 22.4502 49.1254 20.8083L49.7822 19.5271L50.0403 20.9452C51.442 28.6472 46.6005 43.3239 29.3948 48.1937L28.8254 48.3548L28.7756 47.7618C28.7642 47.6268 28.7512 47.4828 28.7375 47.3305C28.5703 45.4812 28.2911 42.392 29.5238 39.1482C30.6043 36.3045 32.8242 33.3888 37.1683 31.0392C42.2868 25.5456 43.8268 18.2329 44.0689 12.2309C44.1901 9.22492 43.9849 6.56509 43.7493 4.65709C43.6616 3.947 43.5698 3.3417 43.4892 2.86219C43.4768 2.88071 43.4642 2.89941 43.4514 2.91829C42.9576 3.64607 42.1852 4.64104 41.0617 5.72911C38.8125 7.9074 35.1642 10.4507 29.5481 11.9733C24.1849 13.4273 20.7343 17.1474 19.1103 21.6171C17.4821 26.0987 17.6942 31.3297 19.6792 35.7524L18.7885 36.1572C16.7005 31.5049 16.4747 26.0075 18.1925 21.2795C19.9146 16.5396 23.5941 12.569 29.2939 11.0237C34.7408 9.54699 38.2458 7.09135 40.384 5.02056C41.4543 3.98408 42.1842 3.04197 42.6443 2.36381C42.8743 2.02474 43.0368 1.75175 43.1407 1.5661C43.1926 1.47328 43.2298 1.40233 43.2534 1.35589C43.2652 1.33267 43.2736 1.31559 43.2788 1.30497L43.2841 1.29393L43.2846 1.29285L43.8838 0L44.2035 1.38978ZM46.0537 26.6548C44.4662 28.3236 42.6822 29.7543 41.1067 30.3424C34.5403 32.7935 31.6657 36.2649 30.4366 39.4994C29.3228 42.4303 29.5318 45.2261 29.6967 47.0817C44.9108 42.5057 49.7686 29.9858 49.2551 22.5547C48.3917 23.9379 47.2648 25.3817 46.0537 26.6548Z" fill="#68AAF2"/>
<path fill-rule="evenodd" clip-rule="evenodd" d="M5.25039 52.1296L5.82184 52.1457C6.87469 52.1753 8.52464 52.4477 10.1057 53.1693C11.6881 53.8916 13.2502 55.0878 14.028 56.992C14.7624 58.7898 15.0421 60.2904 15.0859 61.4476C15.1291 62.5904 14.943 63.429 14.7087 63.8821L13.8418 63.4281C13.9699 63.1804 14.1489 62.5303 14.1093 61.485C14.0703 60.454 13.8191 59.067 13.1242 57.3659C12.4728 55.7713 11.1477 54.7247 9.70198 54.0648C8.52409 53.5272 7.29839 53.2621 6.37568 53.1678C6.67133 55.1337 7.27654 57.826 8.22556 60.1548C8.75013 61.442 9.37004 62.5937 10.0829 63.4484C10.7966 64.3039 11.5687 64.8218 12.3984 64.9341L12.2681 65.9087C11.1092 65.7518 10.1361 65.0417 9.33439 64.0806C8.53188 63.1185 7.86619 61.8648 7.32138 60.5279C6.23121 57.8528 5.58613 54.7469 5.32358 52.7002L5.25039 52.1296Z" fill="#68AAF2"/>
<path fill-rule="evenodd" clip-rule="evenodd" d="M0.617095 67.8179C5.10404 64.2186 9.93336 64.7186 11.8459 65.454L11.4971 66.3726C9.9405 65.7741 5.87361 65.2946 1.90763 68.0753C3.53718 68.6476 5.14507 68.648 6.47557 68.4364C8.03044 68.189 9.15962 67.6597 9.4488 67.4686L9.98525 68.2906C9.55777 68.5731 8.29098 69.1431 6.62819 69.4077C4.95307 69.6742 2.8291 69.6385 0.715419 68.6481L0 68.3129L0.617095 67.8179Z" fill="#68AAF2"/>
<path fill-rule="evenodd" clip-rule="evenodd" d="M2.78529 62.2194C8.11981 61.2007 10.5971 63.671 11.1551 65.2575L10.2339 65.5856C9.86634 64.5407 7.92071 62.2396 2.96751 63.1856L2.78529 62.2194Z" fill="#68AAF2"/>
<path fill-rule="evenodd" clip-rule="evenodd" d="M42.9441 61.4878C46.7222 61.4878 49.785 58.4058 49.785 54.604C49.785 50.8022 46.7222 47.7202 42.9441 47.7202C39.166 47.7202 36.1033 50.8022 36.1033 54.604C36.1033 58.4058 39.166 61.4878 42.9441 61.4878ZM42.9441 62.4712C47.2619 62.4712 50.7622 58.9489 50.7622 54.604C50.7622 50.2591 47.2619 46.7368 42.9441 46.7368C38.6263 46.7368 35.126 50.2591 35.126 54.604C35.126 58.9489 38.6263 62.4712 42.9441 62.4712Z" fill="#68AAF2"/>
<path fill-rule="evenodd" clip-rule="evenodd" d="M36.326 82.305C33.2767 84.4818 31.4821 87.3079 31.7061 90.0516L30.7321 90.1321C30.4674 86.8899 32.5809 83.7728 35.7606 81.5029C38.957 79.2211 43.3307 77.7138 47.8306 77.7138C52.3552 77.7138 56.3726 79.4836 59.2599 81.8943C62.1291 84.2899 63.9573 87.387 63.9573 90.0919H62.98C62.98 87.7942 61.3869 84.9481 58.6359 82.6511C55.9029 80.3693 52.1013 78.6972 47.8306 78.6972C43.5351 78.6972 39.3587 80.1401 36.326 82.305Z" fill="#68AAF2"/>
<path fill-rule="evenodd" clip-rule="evenodd" d="M24.6999 38.8131C24.8738 39.441 25.0487 40.0724 25.2186 40.7091L24.2747 40.9641C24.1093 40.3441 23.9369 39.7231 23.764 39.1002C22.6659 35.1455 21.5466 31.1141 22.0634 26.7736C22.6666 21.7074 25.4771 16.2861 32.8551 9.97658L33.488 10.7259C26.2297 16.9331 23.5985 22.147 23.0337 26.8906C22.5418 31.0222 23.6013 34.8473 24.6999 38.8131Z" fill="#68AAF2"/>
<path fill-rule="evenodd" clip-rule="evenodd" d="M39.5957 17.6789C41.9137 12.3283 42.4556 7.10344 42.4556 2.48394H43.4329C43.4329 7.18084 42.8823 12.5534 40.4916 18.0719C38.0991 23.5945 33.8768 29.233 26.5783 34.4821L26.0101 33.682C33.1768 28.5277 37.2795 23.0254 39.5957 17.6789ZM16.0555 47.5266C19.8722 50.8035 24.6007 53.1757 28.4032 54.1268L28.1674 55.0812C24.21 54.0913 19.3467 51.6449 15.4212 48.2748C11.5034 44.9112 8.44038 40.5566 8.25184 35.7317L9.22835 35.6931C9.40144 40.1225 12.231 44.2432 16.0555 47.5266Z" fill="#68AAF2"/>
<path fill-rule="evenodd" clip-rule="evenodd" d="M90.8299 97.3817H16.5581V96.3984H90.8299V97.3817Z" fill="#68AAF2"/>
</svg>
