<svg width="120" height="120" viewBox="0 0 120 120" fill="none" xmlns="http://www.w3.org/2000/svg">
<path fill-rule="evenodd" clip-rule="evenodd" d="M12.7869 60C12.7869 85.911 33.6597 106.947 59.5082 107.211V107.213H60.4919V107.211C86.1766 106.948 106.948 86.1767 107.211 60.492H107.213V59.5084H107.211C106.947 33.6597 85.911 12.7869 60 12.7869C33.9249 12.7869 12.7869 33.9249 12.7869 60ZM13.7731 60.492C14.0352 85.6335 34.3667 105.965 59.5082 106.227V98.3576C38.7126 98.0963 21.9038 81.2876 21.6424 60.492H13.7731ZM21.6424 59.5084H13.7731C14.035 34.3667 34.3666 14.0351 59.5082 13.7731V21.6424C38.7125 21.9037 21.9036 38.7126 21.6424 59.5084ZM22.6261 59.5084C22.6422 58.264 22.719 57.0342 22.8538 55.822L25.2842 56.1517L25.4164 55.177L22.9797 54.8465L22.8912 55.4986C23.0779 53.9433 23.3601 52.4174 23.7318 50.9268L26.0969 51.5774L26.3577 50.629L23.9868 49.9768L23.8074 50.6288C24.1915 49.1413 24.6648 47.6897 25.2214 46.28L27.4802 47.2355L27.8634 46.3296L25.5986 45.3717L25.3412 45.9803C25.9041 44.5901 26.5482 43.2415 27.2676 41.9403L29.383 43.1795L29.8802 42.3308L27.7584 41.0879L27.4511 41.6124C28.2049 40.281 29.0379 39.0005 29.9439 37.7772L31.878 39.2836L32.4824 38.5076L30.5425 36.9966L30.1784 37.464C31.0935 36.255 32.0804 35.1033 33.1328 34.0154L34.8537 35.7615L35.5542 35.071L33.8281 33.3197L33.4144 33.7274C34.4213 32.7085 35.4864 31.7472 36.6043 30.8489L38.088 32.7974L38.8706 32.2015L37.3808 30.2451L37.0106 30.527C38.1772 29.6157 39.3994 28.7722 40.6711 28.0023L41.8858 30.1295L42.74 29.6418L41.5206 27.5064L41.1006 27.7462C42.4017 26.9822 43.7532 26.2946 45.1488 25.6897L46.0697 27.9612L46.9812 27.5916L46.0573 25.3128L45.5607 25.5141C46.9206 24.944 48.3214 24.4521 49.7574 24.0438L50.3713 26.416L51.3236 26.1696L50.7075 23.789L50.246 23.9085C51.6115 23.5403 53.0079 23.2476 54.4306 23.0351L54.7317 25.4648L55.7079 25.3438L55.4054 22.9034L55.095 22.9419C56.5417 22.7523 58.0144 22.6454 59.5082 22.6261V26.0653L56.1796 42.7083C55.6602 42.8226 55.1492 42.9596 54.648 43.1184L44.8554 32.8122L44.0272 33.2904L48.0578 46.929C47.6642 47.2888 47.2869 47.6661 46.9271 48.0598L33.2907 44.0272L32.8125 44.8554L43.1193 54.6451C42.9602 55.1473 42.8228 55.6592 42.7083 56.1796L26.0647 59.5084H22.6261ZM22.6261 60.492H26.0665L42.7083 63.8204C42.8256 64.3536 42.9669 64.8779 43.1311 65.3919L32.8134 75.1437L33.2919 75.9724L46.9009 71.9115C47.2705 72.3176 47.6587 72.7066 48.0642 73.0769L44.0273 86.7091L44.8555 87.1874L54.6393 76.8789C55.1434 77.0388 55.6572 77.1768 56.1796 77.2917L59.5082 93.9347V97.3739C58.2786 97.358 57.0633 97.2828 55.8651 97.1509L56.1853 94.7211L55.2101 94.5926L54.8889 97.0305C53.5849 96.8522 52.3023 96.6067 51.0447 96.2974L51.6855 93.9329L50.7361 93.6756L50.0929 96.049L50.4751 96.1526C49.0774 95.7853 47.7117 95.3392 46.3831 94.8192L47.3292 92.5587L46.4219 92.1789L45.4725 94.4473L45.8995 94.626C44.547 94.0747 43.2341 93.4464 41.9662 92.7467L43.1978 90.6264L42.3472 90.1323L41.1121 92.2587L41.5886 92.5354C40.2902 91.7991 39.0402 90.9873 37.8446 90.1059L39.3439 88.1664L38.5657 87.5649L37.0618 89.5103L37.4868 89.8389C36.3016 88.9432 35.1714 87.9786 34.1023 86.951L35.8418 85.224L35.1488 84.526L33.4037 86.2585L33.7818 86.6393C32.7372 85.6111 31.7528 84.5219 30.8343 83.3775L32.7806 81.8843L32.1818 81.1039L30.2309 82.6007L30.6228 83.1115C29.6829 81.9185 28.8142 80.6668 28.0229 79.3629L30.1485 78.1387L29.6576 77.2864L27.5267 78.5136L27.8508 79.0764C27.0843 77.7874 26.3931 76.4484 25.7833 75.0654L28.0502 74.1265L27.6738 73.2178L25.4019 74.1588L25.6669 74.7985C25.0645 73.4028 24.5448 71.9632 24.1138 70.4857L26.4842 69.8529L26.2306 68.9026L23.8547 69.5368L24.0331 70.205C23.6137 68.724 23.2834 67.2057 23.0481 65.6562L25.481 65.3451L25.3563 64.3695L22.9171 64.6813L22.9997 65.327C22.774 63.7451 22.6473 62.1313 22.6261 60.492ZM54.8983 97.0318C55.013 97.0474 55.1278 97.0626 55.2428 97.0772L54.8983 97.0318ZM60.4919 97.3739V93.9342L63.8204 77.2917C64.3461 77.1761 64.8631 77.0371 65.3702 76.8758L75.1443 87.1871L75.9727 86.7088L71.9284 73.0836C72.3424 72.706 72.7383 72.309 73.1149 71.8941L86.7077 75.9722L87.1863 75.1432L76.8618 65.4141C77.029 64.8929 77.1727 64.3613 77.2917 63.8204L93.9345 60.4918L97.3739 60.492C97.359 61.6468 97.2917 62.789 97.1743 63.9163L94.7491 63.6063L94.6244 64.5819L97.0596 64.8933C96.886 66.2213 96.6426 67.5274 96.3333 68.8078L93.971 68.1773L93.7173 69.1276L96.0897 69.7608C95.7481 71.0271 95.3416 72.2667 94.874 73.4759L92.6149 72.5402L92.2385 73.4489L94.5071 74.3885C94.0068 75.5871 93.4458 76.754 92.8281 77.8855L90.7085 76.6648L90.2176 77.5171L92.3453 78.7426C91.685 79.8797 90.9664 80.9788 90.1937 82.0358L88.2533 80.5472L87.6546 81.3275L89.6028 82.8222C88.8035 83.8574 87.9512 84.8495 87.0498 85.7945L85.3207 84.0653L84.6252 84.7608L86.3617 86.4973C85.4449 87.4094 84.4812 88.2742 83.4743 89.0877L81.9772 87.1511L81.199 87.7527L82.7012 89.6959C81.6643 90.4898 80.5845 91.2306 79.4661 91.9142L78.2367 89.7977L77.3862 90.2917L78.6202 92.4161C77.4953 93.0636 76.3336 93.6543 75.1389 94.1842L74.1931 91.9247L73.2858 92.3045L74.2345 94.571C73.0338 95.066 71.8016 95.5002 70.5419 95.8698L69.901 93.5049L68.9516 93.7622L69.5944 96.1342C68.3411 96.4661 67.0619 96.7346 65.7605 96.9359L65.4406 94.5081L64.4654 94.6366L64.7865 97.0734C63.378 97.2535 61.9449 97.3551 60.4919 97.3739ZM60.4919 98.3576C81.2874 98.0963 98.0962 81.2876 98.3576 60.492H106.227C105.965 85.6335 85.6333 105.965 60.4919 106.227V98.3576ZM98.3576 59.5084H106.227C105.965 34.3667 85.6335 14.0351 60.4919 13.7731V21.6424C81.2876 21.9037 98.0964 38.7126 98.3576 59.5084ZM60.4919 22.6261V26.0658L63.8204 42.7083C64.3569 42.8263 64.8843 42.9687 65.4014 43.1341L75.1435 32.8134L75.9723 33.2919L71.9039 46.8941C72.3196 47.2718 72.7172 47.6691 73.0953 48.0845L86.7083 44.0275L87.1867 44.8561L76.8706 54.6133C77.034 55.1257 77.1748 55.6482 77.2917 56.1796L93.9353 59.5084H97.3739C97.3568 58.1853 97.271 56.8787 97.1199 55.5922L94.6823 55.8848L94.565 54.9082L96.9923 54.6169C96.8075 53.3359 96.5578 52.076 96.2466 50.8406L93.867 51.4468L93.6242 50.4936L95.9937 49.89C95.6393 48.6257 95.2201 47.3885 94.7398 46.1821L92.4607 47.0963L92.0945 46.1834L94.3639 45.2731C93.8317 44.0328 93.2342 42.827 92.5759 41.6601L90.4387 42.8701L89.9541 42.0141L92.0813 40.8098C91.4327 39.7279 90.7309 38.6814 89.9795 37.6742L88.0147 39.1478L87.4245 38.3609L89.3811 36.8935C88.5643 35.8563 87.6938 34.8635 86.7737 33.9191L85.0179 35.637L84.33 34.934L86.0781 33.2236C85.1331 32.3031 84.1396 31.4321 83.1016 30.615L81.585 32.5477L80.8112 31.9405L82.3208 30.0167C81.2563 29.2229 80.148 28.4845 79.0003 27.8057L77.7504 29.9214L76.9035 29.4212L78.1471 27.3161C77.0439 26.7023 75.9064 26.1427 74.7383 25.641L73.7722 27.9014L72.8678 27.5148L73.8294 25.2648C72.6292 24.7865 71.3984 24.3687 70.1407 24.015L69.4797 26.3831L68.5323 26.1186L69.1904 23.7612C67.8756 23.4288 66.5331 23.1661 65.1669 22.9772L65.2153 22.9839L64.8753 25.4193L63.9012 25.2834L64.2393 22.8607C63.0073 22.7216 61.7572 22.6424 60.4919 22.6261ZM43.2858 60.492C43.5413 69.336 50.6642 76.4588 59.5082 76.7142V74.7461C51.7508 74.492 45.5081 68.2494 45.254 60.492H43.2858ZM57.2654 77.7049H62.7346L60 91.378L57.2654 77.7049ZM76.7142 60.492C76.4587 69.336 69.3359 76.4588 60.4919 76.7142V74.7461C68.2493 74.492 74.4919 68.2494 74.7461 60.492H76.7142ZM59.5082 62.951V73.7619C52.2941 73.5087 46.4915 67.7061 46.2381 60.492H57.09C57.3242 61.8875 58.5379 62.9508 60 62.9508C61.4621 62.9508 62.6758 61.8875 62.91 60.492H73.7619C73.5085 67.7061 67.706 73.5086 60.4919 73.7619V62.951H59.5082ZM59.5082 46.2381C52.2939 46.4913 46.4913 52.2941 46.2381 59.5084H57.09C57.2972 58.2726 58.2725 57.2973 59.5082 57.09V46.2381ZM59.5082 45.2539C51.7506 45.508 45.5079 51.7508 45.2539 59.5084H43.2858C43.5411 50.6642 50.6641 43.5412 59.5082 43.2858V45.2539ZM60 43.2787L60.076 43.2789H59.924L60 43.2787ZM58.0328 60C58.0328 58.9224 58.8992 58.0472 59.9734 58.033H60.0266C61.1008 58.0472 61.9672 58.9224 61.9672 60C61.9672 61.0865 61.0865 61.9672 60 61.9672C58.9135 61.9672 58.0328 61.0865 58.0328 60ZM73.7619 59.5084H62.91C62.7028 58.2726 61.7275 57.2973 60.4919 57.09V46.2381C67.7061 46.4914 73.5087 52.2941 73.7619 59.5084ZM74.7461 59.5084C74.4921 51.7508 68.2494 45.508 60.4919 45.2539V43.2858C69.336 43.5413 76.4589 50.6642 76.7142 59.5084H74.7461ZM45.5494 34.9707L53.6304 43.4754C51.8973 44.1439 50.2958 45.0772 48.8756 46.2257L45.5494 34.9707ZM43.4765 53.6277C44.1446 51.8965 45.0769 50.2966 46.224 48.8776L34.9723 45.5502L43.4765 53.6277ZM46.201 71.0938C45.0719 69.6913 44.1523 68.113 43.4897 66.4064L34.9911 74.4389L46.201 71.0938ZM45.5519 85.0249L48.882 73.7795C50.2985 74.9239 51.895 75.8542 53.6224 76.5215L45.5519 85.0249ZM66.3863 76.5181C68.1074 75.8522 69.6984 74.9251 71.1107 73.7854L74.4454 85.0201L66.3863 76.5181ZM73.8129 71.0766L84.9976 74.4322L76.5024 66.4269C75.843 68.1186 74.9311 69.6839 73.8129 71.0766ZM77.7049 57.2654V62.7346L91.378 60L77.7049 57.2654ZM73.7957 48.9021C74.9273 50.307 75.8487 51.8884 76.5122 53.5984L85.0116 45.5595L73.7957 48.9021ZM74.436 34.9959L71.0863 46.1949C69.688 45.0706 68.1153 44.1543 66.4152 43.4931L74.436 34.9959ZM62.7346 42.2951L60 28.622L57.2654 42.2951H62.7346ZM28.622 60L42.2951 62.7346V57.2654L28.622 60Z" fill="#68AAF2"/>
<path fill-rule="evenodd" clip-rule="evenodd" d="M60 0L63.5906 8.97653C88.9771 10.7371 109.263 31.0229 111.023 56.4094L120 60L111.023 63.5906C109.263 88.9771 88.9771 109.263 63.5906 111.023L60 120L56.4094 111.023C31.0229 109.263 10.7371 88.9771 8.97653 63.5906L0 60L8.97653 56.4094C10.7371 31.0229 31.0229 10.7371 56.4094 8.97653L60 0ZM57.5184 111.148L60 117.352L62.4816 111.148H57.5184ZM60 110.164C87.7048 110.164 110.164 87.7048 110.164 60C110.164 32.2952 87.7048 9.83607 60 9.83607C32.2952 9.83607 9.83607 32.2952 9.83607 60C9.83607 87.7048 32.2952 110.164 60 110.164ZM62.4816 8.85246L57.5184 8.85246L60 2.64844L62.4816 8.85246ZM111.148 62.4816L117.352 60L111.148 57.5184V62.4816ZM8.85246 57.5184V62.4816L2.64844 60L8.85246 57.5184Z" fill="#68AAF2"/>
</svg>
