<svg width="83" height="120" viewBox="0 0 83 120" fill="none" xmlns="http://www.w3.org/2000/svg">
<mask id="mask0_721_3681" style="mask-type:alpha" maskUnits="userSpaceOnUse" x="0" y="0" width="83" height="120">
<ellipse cx="41.4601" cy="60" rx="41.4601" ry="60" fill="#D9D9D9"/>
</mask>
<g mask="url(#mask0_721_3681)">
<path d="M82.4202 60C82.4202 76.4799 77.8036 91.3779 70.3655 102.142C62.9259 112.908 52.6981 119.5 41.4601 119.5C30.2221 119.5 19.9943 112.908 12.5547 102.142C5.11659 91.3779 0.5 76.4799 0.5 60C0.5 43.5201 5.11659 28.6221 12.5547 17.8578C19.9943 7.09152 30.2221 0.5 41.4601 0.5C52.6981 0.5 62.9259 7.09152 70.3655 17.8578C77.8036 28.6221 82.4202 43.5201 82.4202 60Z" stroke="#68AAF2"/>
<path d="M59.4609 77.0005C70.9609 74.0005 71.9609 66.0005 82.9211 65.6406V122.65H41.4614H41.4638C21.7109 122.65 5.18426 109.422 1.01953 91.7164C3.77918 90.9804 6.84197 91.0646 9.45004 89.8429C13.8409 87.789 16.9213 82.3122 20.4604 79.0005C24.5434 75.1765 27.3719 72.7263 32.9609 73.0005C38.5476 73.2747 41.4609 75.0005 41.4609 75.0005M50.4609 78.0005C51.208 78.4078 53.0866 78.3261 54.9609 78.0005" stroke="#68AAF2"/>
<path d="M34.3672 35.2873C34.3672 31.3339 37.5722 28.1289 41.5256 28.1289C45.479 28.1289 48.684 31.3339 48.684 35.2873C48.684 39.2407 45.479 42.4457 41.5256 42.4457C37.5722 42.4457 34.3672 39.2407 34.3672 35.2873Z" stroke="#68AAF2"/>
<path d="M32.5862 31.5646L19.8711 26.6484" stroke="#68AAF2"/>
<path d="M11.8398 35.5371H31.8487" stroke="#68AAF2"/>
<path d="M34.8575 28.2687L22.666 15.4395" stroke="#68AAF2"/>
<path d="M32.2695 13.8848L37.5483 26.4573" stroke="#68AAF2"/>
<path d="M50.946 13.959L45.3066 26.3705" stroke="#68AAF2"/>
<path d="M50.5645 31.806C55.4815 29.7644 63.1553 26.5781 63.1553 26.5781" stroke="#68AAF2"/>
<path d="M59.4313 17.0332L48.1953 28.2692" stroke="#68AAF2"/>
<path d="M41.7754 25.6104V5.60156" stroke="#68AAF2"/>
<path d="M63.182 43.9259L50.4669 39.0098H50.4648" stroke="#68AAF2"/>
<path d="M50.7827 56.6897L45.5039 44.1172" stroke="#68AAF2"/>
<path d="M59.4631 52.8732L48.5449 41.9551" stroke="#68AAF2"/>
<path d="M20.0879 44.4564L32.6808 39.2285" stroke="#68AAF2"/>
<path d="M51.2031 35.5371H71.212" stroke="#68AAF2"/>
<path d="M22.9844 53.2229L34.8581 42.3047" stroke="#68AAF2"/>
<path d="M41.2773 44.9648V64.9737" stroke="#68AAF2"/>
<path d="M32.1055 56.6166L37.7449 44.2051" stroke="#68AAF2"/>
<path d="M42.6829 80.1702C34.1355 80.3338 25.9165 85.2499 20.1893 91.5719C17.9244 94.0738 15.9011 96.8283 13.2813 98.9597C10.9682 100.843 8.03703 102.215 5.09375 102.087C12.2407 114.12 25.7837 122.239 41.3138 122.239V122.242H82.9206V73.5488C79.4407 77.8611 75.9604 82.5002 65.4604 83.0002M52.0788 81.213C54.7114 82.1328 54.7431 83.7187 58.6445 83.2429" stroke="#68AAF2"/>
<path d="M22.9609 114C31.6566 111.442 39.1748 106.007 44.9134 99.5M55.9609 79.5C53.2943 76 50.3609 67.6 59.9609 62C62.2943 65.8333 64.7609 74.7 55.9609 79.5ZM55.9609 79.5C55.2021 82.427 54.0201 85.4716 52.4609 88.4961M52.4609 88.4961C53.2943 84.1641 52.3609 74.8 41.9609 72C40.9609 76.8307 41.6609 86.893 52.4609 88.4961ZM52.4609 88.4961C54.6276 84.6641 61.4609 78.8 71.4609 86C69.2943 88.9974 62.4609 93.693 52.4609 88.4961ZM52.4609 88.4961C50.5073 92.2858 47.9614 96.044 44.9134 99.5M44.9134 99.5C46.0959 95.5 45.8609 86.6 35.4609 83C34.0959 88 34.0754 98.3 44.9134 99.5ZM44.9134 99.5C48.2626 96.3333 56.7609 92.2 63.9609 101C60.7626 103.833 52.4754 107.5 44.9134 99.5Z" stroke="#68AAF2"/>
</g>
</svg>
