<svg width="120" height="122" viewBox="0 0 120 122" fill="none" xmlns="http://www.w3.org/2000/svg">
<path fill-rule="evenodd" clip-rule="evenodd" d="M62.1063 48.9689C58.302 42.6321 51.9618 40.4947 46.4633 41.642C40.7255 42.8392 35.903 47.6224 35.903 54.8429C35.903 58.039 36.703 60.5502 38.126 62.7686C39.538 64.9699 41.5504 66.8613 43.931 68.8418C44.8306 69.5902 45.7858 70.354 46.788 71.1553C51.1083 74.6098 56.3021 78.7627 61.6763 85.3898L62.1063 85.9201L62.5363 85.3898C67.9105 78.7627 73.1042 74.6098 77.4246 71.1553C78.4268 70.354 79.382 69.5902 80.2816 68.8418C82.6622 66.8613 84.6746 64.9699 86.0866 62.7686C87.5095 60.5502 88.3096 58.039 88.3096 54.8429C88.3096 47.6224 83.487 42.8392 77.7492 41.642C72.2507 40.4947 65.9106 42.6321 62.1063 48.9689ZM46.6873 42.7535C41.4076 43.8551 37.018 48.2217 37.018 54.8429C37.018 57.8228 37.7572 60.1178 39.0597 62.1484C40.3731 64.1961 42.2724 65.9965 44.6367 67.9634C45.5168 68.6955 46.4583 69.4481 47.4514 70.2419C51.6624 73.608 56.8003 77.7149 62.1063 84.1422C67.4123 77.7149 72.5502 73.608 76.7612 70.2419C77.7543 69.4481 78.6958 68.6955 79.5758 67.9634C81.9401 65.9965 83.8395 64.1961 85.1529 62.1484C86.4554 60.1178 87.1945 57.8228 87.1945 54.8429C87.1945 48.2217 82.805 43.8551 77.5253 42.7535C72.2498 41.6528 66.0867 43.8211 62.5965 50.376L62.1063 51.2966L61.6161 50.376C58.1259 43.8211 51.9628 41.6528 46.6873 42.7535Z" fill="#68AAF2"/>
<path fill-rule="evenodd" clip-rule="evenodd" d="M38.5675 61.7836C56.1945 57.7334 67.3088 69.9924 70.4175 76.8497L69.405 77.325C66.4318 70.7665 55.7522 58.9982 38.8131 62.8903L38.5675 61.7836Z" fill="#68AAF2"/>
<path fill-rule="evenodd" clip-rule="evenodd" d="M61.6784 67.6461C70.1324 57.3404 81.2318 58.9533 85.7552 61.0728L85.2889 62.1034C81.0729 60.128 70.5707 58.5767 62.5344 68.3732L61.6784 67.6461Z" fill="#68AAF2"/>
<path fill-rule="evenodd" clip-rule="evenodd" d="M74.7098 48.6878C75.9569 45.7128 78.3379 43.6883 80.8307 42.5317L81.2932 43.5641C78.9923 44.6317 76.8496 46.4751 75.7355 49.133C74.626 51.7795 74.5021 55.3155 76.3839 59.8463L75.3569 60.288C73.383 55.5356 73.458 51.674 74.7098 48.6878Z" fill="#68AAF2"/>
<path fill-rule="evenodd" clip-rule="evenodd" d="M46.7592 50.7888C44.8689 48.208 42.3378 46.5329 40.7061 45.8404L41.1353 44.7932C42.9314 45.5554 45.6309 47.3496 47.6532 50.1108C49.6874 52.8882 51.044 56.6584 50.0836 61.3179L48.9923 61.085C49.8759 56.7983 48.6376 53.3535 46.7592 50.7888Z" fill="#68AAF2"/>
<path fill-rule="evenodd" clip-rule="evenodd" d="M77.7168 82.1923C76.1772 82.1923 74.9292 83.4623 74.9292 85.0288C74.9292 86.5954 76.1772 87.8654 77.7168 87.8654C79.2563 87.8654 80.5043 86.5954 80.5043 85.0288C80.5043 83.4623 79.2563 82.1923 77.7168 82.1923ZM73.8141 85.0288C73.8141 82.8356 75.5614 81.0577 77.7168 81.0577C79.8721 81.0577 81.6194 82.8356 81.6194 85.0288C81.6194 87.2221 79.8721 89 77.7168 89C75.5614 89 73.8141 87.2221 73.8141 85.0288Z" fill="#68AAF2"/>
<path fill-rule="evenodd" clip-rule="evenodd" d="M65.4514 33.4038C63.9118 33.4038 62.6638 34.6738 62.6638 36.2404C62.6638 37.807 63.9118 39.0769 65.4514 39.0769C66.9909 39.0769 68.239 37.807 68.239 36.2404C68.239 34.6738 66.9909 33.4038 65.4514 33.4038ZM61.5488 36.2404C61.5488 34.0472 63.296 32.2692 65.4514 32.2692C67.6067 32.2692 69.354 34.0472 69.354 36.2404C69.354 38.4336 67.6067 40.2115 65.4514 40.2115C63.296 40.2115 61.5488 38.4336 61.5488 36.2404Z" fill="#68AAF2"/>
<path fill-rule="evenodd" clip-rule="evenodd" d="M28.6553 53.8269C27.1157 53.8269 25.8677 55.0969 25.8677 56.6635C25.8677 58.23 27.1157 59.5 28.6553 59.5C30.1948 59.5 31.4429 58.23 31.4429 56.6635C31.4429 55.0969 30.1948 53.8269 28.6553 53.8269ZM24.7527 56.6635C24.7527 54.4703 26.4999 52.6923 28.6553 52.6923C30.8106 52.6923 32.5579 54.4703 32.5579 56.6635C32.5579 58.8567 30.8106 60.6346 28.6553 60.6346C26.4999 60.6346 24.7527 58.8567 24.7527 56.6635Z" fill="#68AAF2"/>
<path fill-rule="evenodd" clip-rule="evenodd" d="M32.0004 39.0769C31.0767 39.0769 30.3278 39.8389 30.3278 40.7788C30.3278 41.7188 31.0767 42.4808 32.0004 42.4808C32.9241 42.4808 33.6729 41.7188 33.6729 40.7788C33.6729 39.8389 32.9241 39.0769 32.0004 39.0769ZM29.2128 40.7788C29.2128 39.2123 30.4608 37.9423 32.0004 37.9423C33.5399 37.9423 34.788 39.2123 34.788 40.7788C34.788 42.3454 33.5399 43.6154 32.0004 43.6154C30.4608 43.6154 29.2128 42.3454 29.2128 40.7788Z" fill="#68AAF2"/>
<path fill-rule="evenodd" clip-rule="evenodd" d="M82.1769 31.1346C81.2532 31.1346 80.5043 31.8966 80.5043 32.8365C80.5043 33.7765 81.2532 34.5385 82.1769 34.5385C83.1006 34.5385 83.8494 33.7765 83.8494 32.8365C83.8494 31.8966 83.1006 31.1346 82.1769 31.1346ZM79.3893 32.8365C79.3893 31.27 80.6374 30 82.1769 30C83.7164 30 84.9645 31.27 84.9645 32.8365C84.9645 34.4031 83.7164 35.6731 82.1769 35.6731C80.6374 35.6731 79.3893 34.4031 79.3893 32.8365Z" fill="#68AAF2"/>
<path fill-rule="evenodd" clip-rule="evenodd" d="M94.1184 59.3072V60.0671C94.1184 62.0925 93.3731 65.4109 90.5694 68.5859C90.9825 68.4545 91.4114 68.3387 91.8525 68.2445C94.4748 67.6843 97.579 67.8764 100.362 70.105L101 70.6159L100.302 71.0383C99.083 71.7765 96.6725 72.9557 94.0087 73.4742C92.8151 73.7065 91.5461 73.8103 90.3014 73.6693C90.9027 74.641 91.2561 75.7554 91.4328 76.8934C91.8355 79.4875 91.3438 82.2833 90.7734 84.0693L90.4985 84.93L89.857 84.3032C85.9605 80.4957 85.3568 75.6327 85.62 72.7057C83.8269 73.9563 82.0552 74.6073 80.2457 74.783C78.0704 74.9943 75.8908 74.5135 73.6181 73.6463L74.0097 72.584C76.1972 73.4187 78.197 73.8422 80.1397 73.6536C82.0178 73.4712 83.89 72.712 85.8618 71.1118C85.8935 70.8467 85.9239 70.5764 85.9547 70.3023C86.1621 68.457 86.389 66.4375 87.1784 64.6372C88.1454 62.4316 89.938 60.5681 93.4025 59.5232L94.1184 59.3072ZM86.772 72.4174C86.4618 74.8432 86.8015 79.2131 89.9732 82.7958C90.377 81.1686 90.6364 79.035 90.3314 77.0705C90.1052 75.6137 89.5781 74.2815 88.5858 73.3004C87.9571 73.0937 87.3477 72.8049 86.772 72.4174ZM89.158 72.291C90.6156 72.7151 92.2261 72.666 93.7992 72.3598C95.8328 71.9639 97.7248 71.1516 98.9754 70.49C96.7081 69.0023 94.2546 68.8907 92.0816 69.3549C90.4407 69.7054 88.9824 70.3811 87.9309 71.0164C87.8224 71.0985 87.712 71.1802 87.5999 71.2616C88.1982 71.5422 88.7145 71.8905 89.158 72.291ZM87.3093 70.0726C87.2338 70.1187 87.1602 70.1646 87.0885 70.2102C87.2917 68.4242 87.5064 66.6739 88.1967 65.0995C88.9544 63.3712 90.2997 61.8427 92.9629 60.8633C92.7343 63.1998 91.4632 66.9096 87.3093 70.0726Z" fill="#68AAF2"/>
<path fill-rule="evenodd" clip-rule="evenodd" d="M94.6866 37.8714L94.6798 38.5155C94.6643 39.9935 94.4769 41.7563 93.3818 43.5974C92.7697 44.6264 91.8857 45.6609 90.6203 46.6791C93.0777 46.5012 96.1521 47.1649 99.2596 49.8059L99.8335 50.2936L99.2104 50.7141C97.8544 51.6291 95.5885 52.6392 93.1643 52.6901C90.7044 52.7417 88.0932 51.8004 86.1716 48.8392L86.0675 48.6789L86.0807 48.4871C86.1904 46.887 86.7085 44.457 87.9197 42.3269C89.1366 40.1867 91.0879 38.2978 94.0578 37.9459L94.6866 37.8714ZM87.4953 47.4241C90.1111 45.9325 91.5877 44.4225 92.4279 43.0099C93.2243 41.671 93.4745 40.3774 93.5429 39.1807C91.3815 39.6523 89.8903 41.1268 88.8848 42.8951C88.0185 44.4187 87.5343 46.1285 87.3161 47.5037C87.3747 47.4768 87.4344 47.4503 87.4953 47.4241ZM87.4636 48.7329C87.6436 48.6363 87.8192 48.5394 87.9906 48.4422C90.0983 47.5566 93.9037 47.1111 97.9265 50.1784C96.6866 50.8736 94.948 51.5178 93.1413 51.5557C91.1654 51.5972 89.0992 50.9182 87.4636 48.7329Z" fill="#68AAF2"/>
<path fill-rule="evenodd" clip-rule="evenodd" d="M39.9342 72.8465C39.0015 71.0436 37.2116 68.6985 34.6322 67.0767C31.8624 65.3352 28.1906 64.436 23.7532 65.9257L23.0042 66.1771L23.487 66.8117C25.0433 68.8574 29.0434 72.3988 34.635 73.6147C33.1431 74.0306 31.655 74.6375 30.2056 75.4794C28.6749 75.2159 26.5099 75.1755 24.4365 76.2104C22.2439 77.3049 20.2482 79.5543 19.1949 83.754L19 84.5309L19.7848 84.4594C21.4235 84.3099 23.9461 83.5505 26.1684 82.2029C28.3078 80.9054 30.2809 78.9921 30.8085 76.4358C32.2981 75.5769 33.8334 74.9795 35.3736 74.5911C34.9038 74.9865 34.4851 75.4313 34.115 75.9068C32.6541 77.7841 31.9433 80.1412 31.7592 81.854L31.6668 82.7133L32.4783 82.4577C39.5883 80.2178 41.6323 76.5065 41.6065 74.0148C44.6374 74.0739 48.0755 74.6123 52.955 76.8733L53.4171 75.8407C48.0661 73.3613 44.3458 72.8767 41.021 72.8744C40.6458 72.8424 40.2837 72.8338 39.9342 72.8465ZM40.4888 74.0089C40.1182 74.0087 39.8477 74.0082 39.6544 74.0077C39.6461 74.008 39.6378 74.0083 39.6294 74.0085C39.5765 74.0115 39.5237 74.0143 39.471 74.0169C37.4849 74.2327 36.0314 75.272 34.9892 76.6112C33.9207 77.9842 33.2903 79.6707 33.0059 81.0878C39.1537 78.918 40.5029 75.7427 40.4888 74.0089ZM29.6361 76.5397C28.2867 76.361 26.5592 76.4147 24.9276 77.2291C23.2142 78.0844 21.5261 79.8189 20.5019 83.2122C21.9406 82.9416 23.8634 82.2799 25.5975 81.2282C27.5152 80.0652 29.1018 78.4888 29.6361 76.5397ZM38.6896 72.9037C32.0556 72.9481 27.0613 69.1832 24.9012 66.76C28.6316 65.7413 31.6936 66.5628 34.0461 68.0419C36.21 69.4025 37.7794 71.3255 38.6896 72.9037Z" fill="#68AAF2"/>
<path fill-rule="evenodd" clip-rule="evenodd" d="M49.2263 75.1346L48.7258 75.3846C49.2263 75.1346 49.2263 75.1346 49.2263 75.1346L49.2312 75.1448L49.2444 75.1724C49.2558 75.1964 49.2725 75.2317 49.2939 75.2774C49.3367 75.3688 49.3985 75.502 49.4751 75.671C49.6282 76.0089 49.8407 76.4904 50.0795 77.0671C50.5558 78.2178 51.1412 79.7586 51.5655 81.2977C51.5883 81.3808 51.6108 81.4641 51.6329 81.5475C52.4216 83.2905 54.3374 83.2248 55.1322 82.2C55.5085 81.7149 55.687 80.9361 55.2062 79.8652C54.7149 78.771 53.5353 77.3915 51.2106 75.8609L51.8164 74.9083C54.2306 76.4979 55.6052 78.0236 56.2204 79.3937C56.8461 80.7872 56.6833 82.0317 56.0075 82.903C55.1095 84.0607 53.4021 84.4139 52.061 83.6566C52.1526 84.3718 52.172 85.0517 52.0808 85.646C51.9849 86.2709 51.7571 86.8637 51.2998 87.2869C50.8319 87.7197 50.2023 87.903 49.4529 87.8592C48.6993 87.8153 48.0802 87.5582 47.6031 87.1136C47.1333 86.6758 46.8403 86.0929 46.6656 85.4591C46.3208 84.2079 46.4022 82.6296 46.6311 81.1389C46.6532 80.9951 46.6768 80.8515 46.7016 80.7083C46.6598 80.7775 46.6176 80.8466 46.575 80.9156C45.7902 82.1875 44.8594 83.4508 43.8537 84.2922C42.8551 85.1276 41.6477 85.6489 40.4126 85.1006L40.3583 85.0765L40.3102 85.0413C39.8399 84.6975 39.5246 84.2661 39.386 83.7604C39.2493 83.2614 39.2999 82.7463 39.4603 82.254C39.775 81.2878 40.5472 80.3008 41.4861 79.4102C43.2902 77.6988 45.9386 76.132 48.0457 75.5677C48.0956 75.4496 48.1346 75.3553 48.1619 75.2885C48.1776 75.25 48.1895 75.2206 48.1973 75.2011L48.206 75.1794L48.208 75.1742L48.6751 73.9918L49.2263 75.1346ZM47.4228 76.9617C45.6932 77.6211 43.6857 78.8747 42.2464 80.2401C41.3565 81.0842 40.7458 81.9138 40.5187 82.6111C40.408 82.9506 40.3979 83.2289 40.4601 83.4557C40.5171 83.6636 40.6479 83.8773 40.9125 84.0834C41.5605 84.3425 42.2954 84.1269 43.1456 83.4157C44.0123 82.6906 44.8671 81.5497 45.6307 80.3122C46.352 79.1433 46.971 77.9232 47.4228 76.9617ZM48.7987 76.9078C48.7529 77.0526 48.7052 77.2069 48.6561 77.3695C48.3307 78.4489 47.9528 79.881 47.7328 81.3141C47.5103 82.7631 47.4609 84.1431 47.7392 85.1527C47.8761 85.6494 48.0832 86.0225 48.3561 86.2769C48.6218 86.5244 48.988 86.6956 49.5167 86.7265C50.0494 86.7576 50.3578 86.6249 50.5497 86.4473C50.752 86.2601 50.9058 85.9484 50.9791 85.4709C51.1286 84.4974 50.9044 83.1008 50.4918 81.6041C50.0852 80.1288 49.5192 78.6365 49.0519 77.5076C48.9631 77.2932 48.8781 77.0924 48.7987 76.9078Z" fill="#68AAF2"/>
<rect x="12" y="1" width="96" height="120" rx="48" stroke="#68AAF2"/>
<rect x="15" y="4" width="90" height="114" rx="45" stroke="#68AAF2"/>
</svg>
