<svg xmlns="http://www.w3.org/2000/svg" width="220" height="265" viewBox="0 0 220 265" version="1.1"><path d="M 137.813 101.683 C 138.534 101.972, 139.397 101.936, 139.729 101.604 C 140.061 101.272, 139.471 101.036, 138.417 101.079 C 137.252 101.127, 137.015 101.364, 137.813 101.683 M 200.750 101.662 C 201.438 101.940, 202.563 101.940, 203.250 101.662 C 203.938 101.385, 203.375 101.158, 202 101.158 C 200.625 101.158, 200.063 101.385, 200.750 101.662 M 194.269 102.693 C 195.242 102.947, 196.592 102.930, 197.269 102.656 C 197.946 102.382, 197.150 102.175, 195.500 102.195 C 193.850 102.215, 193.296 102.439, 194.269 102.693 M 205 102.393 C 205 102.609, 205.698 103.054, 206.552 103.382 C 207.442 103.723, 207.843 103.555, 207.493 102.989 C 206.906 102.038, 205 101.583, 205 102.393 M 174 104 C 174 104.550, 174.477 105, 175.059 105 C 175.641 105, 175.840 104.550, 175.500 104 C 175.160 103.450, 174.684 103, 174.441 103 C 174.198 103, 174 103.450, 174 104 M 180 104.094 C 180 104.592, 180.900 105, 182 105 C 183.100 105, 184 104.827, 184 104.617 C 184 104.406, 183.100 103.998, 182 103.710 C 180.900 103.423, 180 103.595, 180 104.094 M 187.750 103.662 C 188.438 103.940, 189.563 103.940, 190.250 103.662 C 190.938 103.385, 190.375 103.158, 189 103.158 C 187.625 103.158, 187.063 103.385, 187.750 103.662 M 160.250 104.716 C 161.762 104.945, 164.238 104.945, 165.750 104.716 C 167.262 104.487, 166.025 104.300, 163 104.300 C 159.975 104.300, 158.738 104.487, 160.250 104.716 M 142.768 105.725 C 144.565 105.947, 147.265 105.943, 148.768 105.715 C 150.271 105.486, 148.800 105.304, 145.500 105.310 C 142.200 105.315, 140.971 105.502, 142.768 105.725 M 98.750 106.706 C 99.987 106.944, 102.013 106.944, 103.250 106.706 C 104.487 106.467, 103.475 106.272, 101 106.272 C 98.525 106.272, 97.513 106.467, 98.750 106.706 M 130.813 106.683 C 131.534 106.972, 132.397 106.936, 132.729 106.604 C 133.061 106.272, 132.471 106.036, 131.417 106.079 C 130.252 106.127, 130.015 106.364, 130.813 106.683 M 200.750 106.662 C 201.438 106.940, 202.563 106.940, 203.250 106.662 C 203.938 106.385, 203.375 106.158, 202 106.158 C 200.625 106.158, 200.063 106.385, 200.750 106.662 M 87.750 107.662 C 88.438 107.940, 89.563 107.940, 90.250 107.662 C 90.938 107.385, 90.375 107.158, 89 107.158 C 87.625 107.158, 87.063 107.385, 87.750 107.662 M 193.500 107.985 C 196.532 108.772, 206.687 109.306, 205.917 108.639 C 205.688 108.440, 202.125 108.037, 198 107.742 C 193.606 107.429, 191.742 107.529, 193.500 107.985 M 69.879 109.279 C 70.362 109.762, 72.049 109.995, 73.628 109.798 C 76.272 109.468, 76.202 109.399, 72.751 108.921 C 70.601 108.623, 69.376 108.776, 69.879 109.279 M 79.762 108.707 C 81.006 108.946, 82.806 108.937, 83.762 108.687 C 84.718 108.437, 83.700 108.241, 81.500 108.252 C 79.300 108.263, 78.518 108.468, 79.762 108.707 M 178.500 109 C 177.185 109.565, 179.411 109.844, 185 109.815 C 192.112 109.777, 192.847 109.635, 189.500 108.943 C 184.424 107.893, 181.035 107.910, 178.500 109 M 207.336 109.990 C 207.447 111.680, 208.142 112.545, 209.500 112.682 C 210.939 112.828, 211.027 112.744, 209.811 112.381 C 208.883 112.104, 207.909 110.892, 207.648 109.689 C 207.249 107.854, 207.199 107.903, 207.336 109.990 M 43.750 111.706 C 44.987 111.944, 47.013 111.944, 48.250 111.706 C 49.487 111.467, 48.475 111.272, 46 111.272 C 43.525 111.272, 42.513 111.467, 43.750 111.706 M 25.264 112.718 C 26.784 112.947, 29.034 112.941, 30.264 112.704 C 31.494 112.467, 30.250 112.279, 27.500 112.286 C 24.750 112.294, 23.744 112.488, 25.264 112.718 M 216.733 113.124 C 217.412 113.808, 218.219 114.115, 218.526 113.807 C 218.834 113.499, 218.279 112.940, 217.293 112.564 C 215.868 112.022, 215.753 112.136, 216.733 113.124 M 14.589 113.856 C 14.298 114.326, 15.172 114.499, 16.530 114.239 C 17.889 113.979, 19 113.594, 19 113.383 C 19 112.610, 15.101 113.027, 14.589 113.856 M 3.250 116.989 C -1.146 119.669, -1.054 122.868, 3.535 126.896 C 5.479 128.603, 7.616 129.998, 8.285 129.996 C 8.953 129.994, 8.150 129.167, 6.500 128.158 C -0.064 124.145, -0.533 120.950, 4.905 117.285 C 9.062 114.484, 7.745 114.248, 3.250 116.989 M 217.483 122.289 C 216.056 124.560, 214.446 125.681, 211.983 126.118 L 208.500 126.737 211.661 126.868 C 214.056 126.968, 215.450 126.254, 217.411 123.923 C 218.835 122.231, 220 120.431, 220 119.923 C 220 118.503, 219.660 118.823, 217.483 122.289 M 194.768 127.725 C 196.565 127.947, 199.265 127.943, 200.768 127.715 C 202.271 127.486, 200.800 127.304, 197.500 127.310 C 194.200 127.315, 192.971 127.502, 194.768 127.725 M 181.667 128.667 C 180.650 129.683, 180.872 131, 182.059 131 C 182.641 131, 182.857 130.578, 182.538 130.062 C 182.219 129.546, 183.655 128.946, 185.729 128.730 L 189.500 128.336 185.917 128.168 C 183.946 128.076, 182.033 128.300, 181.667 128.667 M 175 130 C 175 130.550, 175.648 131, 176.441 131 C 177.234 131, 178.160 130.550, 178.500 130 C 178.840 129.450, 178.191 129, 177.059 129 C 175.927 129, 175 129.450, 175 130 M 204.500 129.898 C 208.155 130.460, 208.328 130.617, 206.500 131.726 C 204.058 133.207, 205.370 133.408, 208.066 131.965 C 211.386 130.188, 210.196 128.994, 205.250 129.142 L 200.500 129.284 204.500 129.898 M 166 130.969 C 166 131.501, 166.675 131.678, 167.500 131.362 C 168.325 131.045, 169 130.609, 169 130.393 C 169 130.177, 168.325 130, 167.500 130 C 166.675 130, 166 130.436, 166 130.969 M 16 133.833 C 16 134.475, 14.620 135, 12.934 135 C 8.040 135, 5.978 136.606, 6.150 140.285 L 6.300 143.500 6.740 140.503 C 7.266 136.925, 8.445 136.036, 12.691 136.015 C 15.754 136.001, 17.856 134.523, 16.600 133.267 C 16.270 132.937, 16 133.192, 16 133.833 M 191.768 134.725 C 193.565 134.947, 196.265 134.943, 197.768 134.715 C 199.271 134.486, 197.800 134.304, 194.500 134.310 C 191.200 134.315, 189.971 134.502, 191.768 134.725 M 179.250 135.689 C 180.213 135.941, 181.787 135.941, 182.750 135.689 C 183.713 135.438, 182.925 135.232, 181 135.232 C 179.075 135.232, 178.287 135.438, 179.250 135.689 M 121 137.266 C 121 139.391, 119.380 139.746, 107 140.335 C 100.846 140.628, 97.949 140.509, 100 140.049 C 102.798 139.421, 102.999 139.240, 101 139.145 C 97.384 138.975, 93.928 140.074, 94.610 141.177 C 94.967 141.756, 93.788 141.863, 91.598 141.452 C 89.221 141.006, 88 141.154, 88 141.889 C 88 143.293, 89.378 143.289, 106.741 141.830 C 119.239 140.780, 121.055 140.402, 121.582 138.742 C 121.912 137.701, 121.917 136.583, 121.591 136.258 C 121.266 135.933, 121 136.386, 121 137.266 M 126.558 136.907 C 126.249 137.405, 126.898 137.578, 127.999 137.290 C 130.334 136.679, 130.629 136, 128.559 136 C 127.766 136, 126.866 136.408, 126.558 136.907 M 135.762 136.707 C 137.006 136.946, 138.806 136.937, 139.762 136.687 C 140.718 136.437, 139.700 136.241, 137.500 136.252 C 135.300 136.263, 134.518 136.468, 135.762 136.707 M 160.250 136.689 C 161.213 136.941, 162.787 136.941, 163.750 136.689 C 164.713 136.438, 163.925 136.232, 162 136.232 C 160.075 136.232, 159.287 136.438, 160.250 136.689 M 114.762 137.707 C 116.006 137.946, 117.806 137.937, 118.762 137.687 C 119.718 137.437, 118.700 137.241, 116.500 137.252 C 114.300 137.263, 113.518 137.468, 114.762 137.707 M 140 138 C 137.550 138.785, 137.560 138.802, 140.500 138.885 C 142.150 138.931, 144.175 138.533, 145 138 C 146.236 137.201, 146.148 137.045, 144.500 137.115 C 143.400 137.161, 141.375 137.560, 140 138 M 106.250 138.689 C 107.213 138.941, 108.787 138.941, 109.750 138.689 C 110.713 138.438, 109.925 138.232, 108 138.232 C 106.075 138.232, 105.287 138.438, 106.250 138.689 M 131.612 138.819 C 131.333 139.270, 132.432 139.443, 134.053 139.206 C 135.674 138.968, 137 138.599, 137 138.387 C 137 137.625, 132.107 138.017, 131.612 138.819 M 79.750 143.706 C 80.987 143.944, 83.013 143.944, 84.250 143.706 C 85.487 143.467, 84.475 143.272, 82 143.272 C 79.525 143.272, 78.513 143.467, 79.750 143.706 M 66.250 144.716 C 67.763 144.945, 70.237 144.945, 71.750 144.716 C 73.263 144.487, 72.025 144.300, 69 144.300 C 65.975 144.300, 64.737 144.487, 66.250 144.716 M 10.750 145.732 C 13.087 145.943, 16.912 145.943, 19.250 145.732 C 21.587 145.522, 19.675 145.349, 15 145.349 C 10.325 145.349, 8.412 145.522, 10.750 145.732 M 52.250 145.716 C 53.763 145.945, 56.237 145.945, 57.750 145.716 C 59.263 145.487, 58.025 145.300, 55 145.300 C 51.975 145.300, 50.737 145.487, 52.250 145.716 M 25.750 146.662 C 26.438 146.940, 27.563 146.940, 28.250 146.662 C 28.938 146.385, 28.375 146.158, 27 146.158 C 25.625 146.158, 25.063 146.385, 25.750 146.662 M 35.750 146.723 C 37.538 146.945, 40.462 146.945, 42.250 146.723 C 44.038 146.502, 42.575 146.320, 39 146.320 C 35.425 146.320, 33.962 146.502, 35.750 146.723 M 85 156.500 C 85 157.875, 85.402 159, 85.894 159 C 86.386 159, 86.724 157.875, 86.644 156.501 C 86.456 153.243, 85 153.242, 85 156.500 M 88 155.441 C 88 156.234, 88.408 157.134, 88.907 157.442 C 89.405 157.751, 89.578 157.102, 89.290 156.001 C 88.679 153.666, 88 153.371, 88 155.441 M 94.603 154.833 C 94.320 155.292, 94.723 155.667, 95.500 155.667 C 96.277 155.667, 96.680 155.292, 96.397 154.833 C 96.114 154.375, 95.710 154, 95.500 154 C 95.290 154, 94.886 154.375, 94.603 154.833 M 117.638 155.500 C 117.955 156.325, 118.391 157, 118.607 157 C 118.823 157, 119 156.325, 119 155.500 C 119 154.675, 118.564 154, 118.031 154 C 117.499 154, 117.322 154.675, 117.638 155.500 M 128.158 156 C 128.158 157.375, 128.385 157.938, 128.662 157.250 C 128.940 156.563, 128.940 155.438, 128.662 154.750 C 128.385 154.063, 128.158 154.625, 128.158 156 M 136 156.441 C 136 157.784, 136.356 159.102, 136.791 159.371 C 137.226 159.640, 137.565 158.541, 137.543 156.930 C 137.522 155.318, 137.166 154, 136.752 154 C 136.338 154, 136 155.098, 136 156.441 M 73.379 157.379 C 73.506 158.239, 73.888 159.221, 74.229 159.563 C 74.571 159.904, 74.747 159.480, 74.621 158.621 C 74.494 157.761, 74.112 156.779, 73.771 156.437 C 73.429 156.096, 73.253 156.520, 73.379 157.379 M 103.079 157.583 C 103.127 158.748, 103.364 158.985, 103.683 158.188 C 103.972 157.466, 103.936 156.603, 103.604 156.271 C 103.272 155.939, 103.036 156.529, 103.079 157.583 M 123.079 157.583 C 123.127 158.748, 123.364 158.985, 123.683 158.188 C 123.972 157.466, 123.936 156.603, 123.604 156.271 C 123.272 155.939, 123.036 156.529, 123.079 157.583 M 132.079 157.583 C 132.127 158.748, 132.364 158.985, 132.683 158.188 C 132.972 157.466, 132.936 156.603, 132.604 156.271 C 132.272 155.939, 132.036 156.529, 132.079 157.583 M 93.500 159 C 93.840 159.550, 94.316 160, 94.559 160 C 94.802 160, 95 159.550, 95 159 C 95 158.450, 94.523 158, 93.941 158 C 93.359 158, 93.160 158.450, 93.500 159 M 102.500 165 C 102.160 165.550, 102.359 166, 102.941 166 C 103.523 166, 104 165.550, 104 165 C 104 164.450, 103.802 164, 103.559 164 C 103.316 164, 102.840 164.450, 102.500 165 M 123.564 165.293 C 123.940 166.279, 124.499 166.834, 124.807 166.526 C 125.115 166.219, 124.808 165.412, 124.124 164.733 C 123.136 163.753, 123.022 163.868, 123.564 165.293 M 106.079 166.583 C 106.127 167.748, 106.364 167.985, 106.683 167.188 C 106.972 166.466, 106.936 165.603, 106.604 165.271 C 106.272 164.939, 106.036 165.529, 106.079 166.583 M 100 166.929 C 100 167.518, 99.888 168.295, 99.750 168.655 C 99.612 169.015, 100.287 169.425, 101.250 169.566 C 103.394 169.881, 103.458 169.315, 101.500 167.357 C 100.675 166.532, 100 166.339, 100 166.929 M 80.687 168.373 C 80.185 169.683, 80.441 170.061, 81.671 169.823 C 82.586 169.645, 83.518 168.825, 83.743 168 C 84.076 166.780, 83.974 166.755, 83.197 167.863 C 82.420 168.972, 82.160 168.981, 81.805 167.914 C 81.497 166.991, 81.165 167.127, 80.687 168.373 M 134 167.902 C 134 168.940, 135.902 170.443, 136.466 169.850 C 136.649 169.658, 136.169 168.920, 135.399 168.211 C 134.630 167.501, 134 167.362, 134 167.902 M 86.603 169.167 C 86.886 169.625, 87.541 170, 88.059 170 C 88.577 170, 89 169.625, 89 169.167 C 89 168.708, 88.345 168.333, 87.544 168.333 C 86.743 168.333, 86.320 168.708, 86.603 169.167 M 107 169 C 105.793 169.780, 105.951 169.972, 107.809 169.985 C 109.097 169.993, 109.845 169.558, 109.500 169 C 108.757 167.798, 108.861 167.798, 107 169 M 117 169 C 117 169.550, 117.477 170, 118.059 170 C 118.641 170, 118.840 169.550, 118.500 169 C 118.160 168.450, 117.684 168, 117.441 168 C 117.198 168, 117 168.450, 117 169" stroke="none" fill="#cfcfcf" fill-rule="evenodd"/><path d="M 175.405 93.250 L 173.500 95.500 175.750 93.595 C 176.988 92.547, 178 91.535, 178 91.345 C 178 90.545, 177.195 91.136, 175.405 93.250 M 182.195 94.500 C 182.215 96.150, 182.439 96.704, 182.693 95.731 C 182.947 94.758, 182.930 93.408, 182.656 92.731 C 182.382 92.054, 182.175 92.850, 182.195 94.500 M 173.376 103.642 C 172.539 105.646, 171.791 108.121, 171.714 109.142 C 171.637 110.164, 171.220 111, 170.787 111 C 170.354 111, 170 111.450, 170 112 C 170 114.358, 172.052 112.637, 175.049 107.765 C 176.821 104.886, 177.523 103.151, 176.611 103.908 C 174.440 105.710, 173.543 104.723, 174.954 102.086 C 175.568 100.939, 175.807 100, 175.484 100 C 175.162 100, 174.213 101.639, 173.376 103.642 M 189.060 103.685 C 182.647 104.672, 179.226 105.677, 178.391 106.818 C 177.716 107.741, 177.240 108.574, 177.334 108.667 C 177.428 108.761, 183.579 108.183, 191.002 107.382 C 198.426 106.581, 205.287 105.847, 206.250 105.750 C 210.562 105.317, 205.956 101.925, 201.316 102.116 C 199.767 102.179, 194.252 102.885, 189.060 103.685 M 137.570 108.250 L 135.026 112.500 138.013 112.813 C 142.160 113.248, 141.758 114.814, 137.404 115.190 C 134.081 115.476, 133.633 115.918, 131.506 121 C 130.241 124.025, 128.529 128.791, 127.703 131.592 L 126.202 136.684 128.651 136.216 C 131.109 135.746, 138 127.831, 138 125.479 C 138 123.543, 140.921 121.521, 142.065 122.665 C 142.706 123.306, 142.498 124.958, 141.464 127.431 C 138.442 134.666, 142.704 133.421, 146.728 125.895 C 151.575 116.828, 155.003 114.719, 157.168 119.470 C 158.048 121.401, 157.989 122.311, 156.897 123.633 C 155.634 125.163, 155.449 124.998, 154.968 121.913 L 154.437 118.500 152.218 124.288 C 149.974 130.143, 149.257 137, 150.889 137 C 151.907 137, 154.586 134.646, 157.756 130.968 C 158.956 129.576, 161.104 124.401, 162.529 119.468 C 163.953 114.536, 165.993 109.010, 167.061 107.190 C 168.129 105.369, 168.665 104.083, 168.252 104.332 C 167.838 104.580, 161.260 105.099, 153.634 105.484 C 143.706 105.985, 139.960 105.874, 140.443 105.092 C 140.814 104.491, 140.892 104, 140.616 104 C 140.339 104, 138.969 105.912, 137.570 108.250 M 97.500 107.027 C 93.100 107.408, 85.308 108.270, 80.184 108.942 C 75.061 109.614, 70.223 109.916, 69.434 109.613 C 68.645 109.310, 68 109.542, 68 110.127 C 68 110.712, 65.544 114.756, 62.542 119.115 C 59.540 123.473, 56.617 128.717, 56.047 130.769 C 54.744 135.463, 54.693 142, 55.960 142 C 57.632 142, 61.580 137.065, 66.433 128.907 C 69.826 123.202, 71.846 120.826, 73.698 120.361 C 75.524 119.903, 76.528 120.192, 77.184 121.364 C 77.844 122.543, 78.843 122.827, 80.697 122.361 C 83.135 121.749, 83.248 121.883, 82.613 124.605 C 82.241 126.197, 81.684 129.525, 81.376 132 L 80.815 136.500 83.392 133.500 C 84.809 131.850, 86.342 129.151, 86.798 127.502 C 87.253 125.852, 88.354 124.363, 89.243 124.192 C 90.471 123.955, 91.027 124.995, 91.555 128.516 L 92.250 133.152 95.375 129.342 C 100.205 123.452, 101.988 121.874, 103.062 122.538 C 103.626 122.887, 102.901 124.516, 101.378 126.325 C 98.947 129.212, 98.873 129.533, 100.557 129.863 C 102.349 130.214, 105.175 127.544, 109.268 121.630 C 110.270 120.182, 111.639 119.308, 112.430 119.612 C 113.556 120.044, 113.352 121.217, 111.370 125.697 C 107.880 133.590, 108.938 134.387, 114.077 127.734 C 120.473 119.453, 122.340 120.241, 119.445 130 L 118.704 132.500 121.472 130 C 124.015 127.704, 126.635 122.898, 128.423 117.250 C 129.098 115.117, 128.869 115, 124.008 115 C 121.189 115, 119.123 114.610, 119.417 114.134 C 119.711 113.658, 121.080 113.484, 122.458 113.747 C 126.617 114.542, 129.687 113.195, 131.773 109.660 L 133.751 106.308 119.626 106.320 C 111.857 106.327, 101.900 106.645, 97.500 107.027 M 199 109.119 C 194.875 109.460, 188.269 109.797, 184.321 109.869 L 177.142 110 172.100 115.250 C 169.178 118.292, 166.410 122.376, 165.517 124.961 C 164.670 127.415, 164.349 128.990, 164.802 128.461 C 165.256 127.933, 167.553 125.138, 169.907 122.250 C 172.260 119.362, 174.833 117, 175.625 117 C 178.008 117, 178.390 119.962, 176.507 123.841 C 173.032 130.999, 172.712 136.462, 176 132.500 C 176.860 131.464, 176.898 131, 176.122 131 C 175.505 131, 175 130.550, 175 130 C 175 129.450, 176.139 129, 177.531 129 C 178.924 129, 180.322 128.325, 180.638 127.500 C 180.955 126.675, 181.642 126, 182.166 126 C 182.690 126, 182.825 126.474, 182.467 127.054 C 182.016 127.784, 185.755 127.898, 194.658 127.426 C 213.443 126.429, 215.044 126.058, 217.726 122.079 C 220.565 117.866, 220.571 116.610, 217.767 113.998 C 216.127 112.470, 214.483 111.995, 211.580 112.209 C 208.340 112.447, 207.524 112.138, 207.063 110.500 C 206.543 108.654, 205.924 108.548, 199 109.119 M 50.500 111 C 50.160 111.550, 48.109 112, 45.941 112 C 40.966 112, 40.864 113.330, 45.044 123.769 C 48.409 132.173, 48.158 134.624, 43.482 139.017 C 40.154 142.143, 32.655 142.903, 29.883 140.394 C 27.296 138.053, 27.877 132.824, 31.106 129.387 C 33.975 126.333, 35.228 127.236, 33.349 131.003 C 31.166 135.378, 31.901 138.431, 35.231 138.815 C 38.393 139.179, 43 135.246, 43 132.183 C 43 131.134, 41.650 127.001, 40 123 C 38.350 118.999, 37 114.874, 37 113.835 C 37 112.112, 36.403 111.994, 30.250 112.511 C 26.538 112.823, 21.700 113.321, 19.500 113.618 C 17.300 113.915, 13.989 114.358, 12.141 114.602 C 6.386 115.363, 1 118.971, 1 122.066 C 1 124.477, 6.261 128.698, 11.057 130.135 C 17.671 132.117, 18.972 136, 13.023 136 C 8.101 136, 7 136.908, 7 140.963 L 7 144.713 17.750 145.449 C 29.662 146.265, 45.979 146.227, 50.298 145.373 C 52.595 144.919, 52.882 144.563, 51.903 143.383 C 49.984 141.071, 51.563 128.255, 54.890 119.139 C 57.479 112.045, 57.627 111.075, 56.160 110.792 C 55.247 110.616, 53.561 111.563, 52.414 112.896 C 51.200 114.306, 49.832 115.014, 49.142 114.588 C 48.312 114.075, 48.638 113.287, 50.229 111.961 C 51.478 110.919, 52.189 110.052, 51.809 110.033 C 51.429 110.015, 50.840 110.450, 50.500 111 M 60.978 114.567 C 59.358 119.476, 60.104 119.636, 62.681 114.931 C 64.258 112.051, 64.476 111, 63.494 111 C 62.758 111, 61.625 112.605, 60.978 114.567 M 142.201 115.321 C 141.540 117.148, 141.016 119.285, 141.036 120.071 C 141.088 122.127, 145.989 115.880, 145.995 113.750 C 146.003 110.772, 143.466 111.822, 142.201 115.321 M 169.554 125.500 C 166.544 129.173, 166.200 130.003, 167.683 130.015 C 169.176 130.028, 169.241 130.195, 168.048 130.949 C 167.249 131.455, 166.251 131.655, 165.830 131.395 C 165.410 131.135, 164.492 131.840, 163.792 132.961 C 162.279 135.384, 160.276 135.624, 159.823 133.436 C 159.586 132.290, 158.565 132.880, 156 135.642 C 154.075 137.716, 153.249 138.847, 154.164 138.155 C 155.079 137.464, 158.660 136.583, 162.121 136.199 L 168.414 135.500 169.596 131.416 C 170.245 129.170, 171.514 125.907, 172.414 124.166 C 174.650 119.842, 173.905 120.189, 169.554 125.500 M 73.042 124.750 C 70.972 129.201, 70.058 133, 71.056 133 C 72.714 133, 77.086 125.388, 76.422 123.657 C 75.510 121.280, 74.505 121.605, 73.042 124.750 M 73.707 133.500 C 70.497 137.524, 68.289 137.955, 67.117 134.787 L 66.298 132.574 65.067 134.876 C 64.389 136.141, 62.187 139.001, 60.172 141.231 L 56.509 145.286 63.005 144.664 C 66.577 144.322, 73.636 143.752, 78.691 143.397 C 84.981 142.955, 88.044 142.327, 88.397 141.408 C 88.681 140.669, 88.442 139.773, 87.867 139.418 C 87.256 139.040, 87.085 137.362, 87.456 135.385 C 88.269 131.051, 87.101 131.097, 84.241 135.512 C 82.018 138.943, 78.794 140.094, 77.459 137.934 C 77.097 137.347, 76.800 135.322, 76.800 133.434 C 76.800 131.545, 76.733 130, 76.650 130 C 76.567 130, 75.243 131.575, 73.707 133.500 M 95.139 132.352 C 93.936 133.632, 92.531 136.150, 92.015 137.946 C 91.133 141.022, 91.208 141.174, 93.289 140.551 C 94.505 140.186, 100.675 139.222, 107 138.407 C 122.772 136.375, 123 136.310, 123 133.866 C 123 131.843, 122.911 131.829, 120.419 133.461 C 117.313 135.496, 115 134.842, 115 131.928 C 115 129.937, 114.757 130.006, 111.406 132.948 C 107.453 136.419, 105.668 136.482, 105.180 133.170 C 104.921 131.410, 104.396 131.113, 102.417 131.610 C 101.073 131.947, 99.378 131.729, 98.650 131.124 C 97.646 130.292, 96.795 130.590, 95.139 132.352 M 177.115 134.916 C 174.739 138.133, 174.441 138.855, 176.115 137.337 C 178.146 135.494, 180.205 135.068, 190 134.467 C 200.352 133.830, 208 132.141, 208 130.491 C 208 130.155, 201.813 129.982, 194.250 130.106 L 180.500 130.331 177.115 134.916 M 133.997 135.250 C 132.667 137.067, 132.360 137.898, 133.301 137.134 C 134.520 136.145, 136.472 135.953, 140.367 136.440 C 145.669 137.103, 145.750 137.074, 145.750 134.514 C 145.750 132.130, 145.610 132.043, 144.046 133.458 C 141.905 135.396, 140.583 135.407, 139 133.500 C 137.244 131.384, 136.684 131.579, 133.997 135.250 M 169 136.378 C 169 136.585, 169.787 137.373, 170.750 138.128 C 172.336 139.371, 172.371 139.336, 171.128 137.750 C 169.821 136.084, 169 135.555, 169 136.378 M 127.872 138.750 C 126.629 140.336, 126.664 140.371, 128.250 139.128 C 129.213 138.373, 130 137.585, 130 137.378 C 130 136.555, 129.179 137.084, 127.872 138.750 M 71.500 155 C 70.437 156.719, 71.979 158.097, 73.448 156.740 C 74.821 155.472, 74.580 154, 73 154 C 72.515 154, 71.840 154.450, 71.500 155 M 89 155.500 C 89 156.325, 88.523 157, 87.941 157 C 87.359 157, 87.203 156.480, 87.595 155.845 C 88.038 155.130, 87.870 154.962, 87.155 155.405 C 85.679 156.317, 85.667 156.270, 87.852 158.141 C 89.591 159.630, 89.708 159.552, 89.785 156.863 C 89.830 155.288, 89.671 154, 89.433 154 C 89.195 154, 89 154.675, 89 155.500 M 101.741 154.592 C 100.999 155.334, 102.159 160, 103.085 160 C 103.554 160, 103.661 159.280, 103.323 158.399 C 102.985 157.519, 103.262 156.456, 103.938 156.038 C 104.867 155.464, 104.804 155.139, 103.682 154.708 C 102.864 154.394, 101.991 154.342, 101.741 154.592 M 108.909 155.187 C 107.786 155.986, 107.848 156.077, 109.218 155.638 C 111.750 154.826, 112.609 157.074, 110.403 158.742 C 108.546 160.145, 108.548 160.171, 110.500 159.830 C 112.838 159.420, 113.766 155.508, 111.712 154.720 C 110.946 154.426, 109.684 154.636, 108.909 155.187 M 116 156.941 C 116 158.623, 116.450 160, 117 160 C 117.550 160, 118 158.902, 118 157.559 C 118 156.216, 117.550 154.840, 117 154.500 C 116.417 154.139, 116 155.156, 116 156.941 M 123.919 154.250 C 123.402 155.839, 123.618 160, 124.217 160 C 124.648 160, 125 158.650, 125 157 C 125 155.350, 124.775 154, 124.500 154 C 124.225 154, 123.963 154.113, 123.919 154.250 M 79 155.796 C 79 156.368, 78.733 157.661, 78.406 158.668 C 78.049 159.768, 78.149 160.060, 78.656 159.400 C 79.120 158.795, 80.112 158.103, 80.860 157.863 C 81.945 157.515, 81.894 157.157, 80.610 156.091 C 79.684 155.323, 79 155.197, 79 155.796 M 140.490 156.016 C 140.144 156.575, 139.470 156.791, 138.991 156.495 C 138.513 156.199, 138.188 156.844, 138.269 157.927 C 138.391 159.537, 138.690 159.678, 139.901 158.699 C 141.066 157.757, 141.223 157.768, 140.633 158.750 C 140.220 159.438, 140.359 160, 140.941 160 C 141.523 160, 142 158.875, 142 157.500 C 142 154.840, 141.513 154.361, 140.490 156.016 M 94 156.571 C 94 157.378, 96.716 160, 97.551 160 C 97.933 160, 97.744 159.396, 97.131 158.658 C 96.519 157.920, 96.313 157.020, 96.675 156.658 C 97.037 156.296, 96.583 156, 95.667 156 C 94.750 156, 94 156.257, 94 156.571 M 129.079 157.750 C 129.026 159.262, 129.574 159.995, 130.750 159.985 C 131.829 159.975, 132.078 159.688, 131.400 159.235 C 130.795 158.831, 130.043 157.825, 129.729 157 C 129.347 155.998, 129.132 156.247, 129.079 157.750 M 72.500 159 C 70.870 159.701, 70.812 159.872, 72.191 159.930 C 73.121 159.968, 74.160 159.550, 74.500 159 C 75.211 157.850, 75.176 157.850, 72.500 159 M 80.015 165.750 C 80.024 166.749, 80.351 167.071, 80.777 166.500 C 81.187 165.950, 81.931 165.162, 82.428 164.750 C 82.926 164.338, 82.583 164, 81.667 164 C 80.740 164, 80.007 164.777, 80.015 165.750 M 95 165.107 C 95 165.716, 94.325 165.955, 93.500 165.638 C 92.442 165.233, 92.005 165.717, 92.015 167.281 C 92.027 168.933, 92.254 169.148, 92.904 168.122 C 93.384 167.364, 94.277 167.053, 94.888 167.431 C 95.566 167.850, 96 167.315, 96 166.059 C 96 164.927, 95.775 164, 95.500 164 C 95.225 164, 95 164.498, 95 165.107 M 99.332 165.578 C 98.988 166.475, 99.517 167.877, 100.558 168.828 C 102.291 170.410, 102.314 170.400, 100.983 168.642 C 99.746 167.009, 99.806 166.615, 101.479 165.392 C 103.184 164.145, 103.203 164, 101.660 164 C 100.712 164, 99.665 164.710, 99.332 165.578 M 106.776 165.176 C 107.635 166.035, 107.656 166.710, 106.854 167.676 C 106.053 168.641, 106.060 169, 106.878 169 C 107.885 169, 108.170 168.274, 107.915 166.362 C 107.868 166.011, 108.430 165.343, 109.165 164.877 C 110.105 164.281, 109.775 164.026, 108.050 164.015 C 106.172 164.004, 105.875 164.275, 106.776 165.176 M 122.992 165.005 C 121.690 165.810, 121.718 166.146, 123.213 167.641 C 124.831 169.260, 124.964 169.258, 125.596 167.610 C 126.466 165.342, 124.931 163.807, 122.992 165.005 M 129.356 166.516 C 129.484 168.747, 129.638 168.843, 130.718 167.369 C 131.942 165.698, 131.603 164, 130.047 164 C 129.587 164, 129.276 165.132, 129.356 166.516 M 135.624 165.539 C 134.647 168.083, 134.878 169, 136.494 169 C 137.416 169, 137.872 168.245, 137.686 167.026 C 137.265 164.268, 136.361 163.616, 135.624 165.539 M 87.079 166.583 C 87.127 167.748, 87.364 167.985, 87.683 167.188 C 87.972 166.466, 87.936 165.603, 87.604 165.271 C 87.272 164.939, 87.036 165.529, 87.079 166.583" stroke="none" fill="#adbdd9" fill-rule="evenodd"/><path d="M 175.287 94.326 C 170.465 99.818, 165.244 110.129, 162.513 119.553 C 161.097 124.439, 158.956 129.576, 157.756 130.968 C 154.586 134.646, 151.907 137, 150.889 137 C 149.257 137, 149.974 130.143, 152.218 124.288 L 154.437 118.500 154.968 121.913 C 155.449 124.998, 155.634 125.163, 156.897 123.633 C 157.989 122.311, 158.048 121.401, 157.168 119.470 C 155.003 114.719, 151.575 116.828, 146.728 125.895 C 142.704 133.421, 138.442 134.666, 141.464 127.431 C 142.498 124.958, 142.706 123.306, 142.065 122.665 C 140.909 121.509, 138 123.552, 138 125.520 C 138 126.222, 135.417 130.096, 132.260 134.131 C 128.102 139.446, 126.426 140.976, 126.178 139.685 C 125.776 137.597, 129.037 126.430, 132.015 119.698 C 133.913 115.409, 134.394 115, 137.547 115 C 141.808 115, 142.137 113.244, 137.957 112.813 L 134.913 112.500 137.957 107.715 C 139.630 105.084, 141 102.721, 141 102.465 C 141 102.209, 139.970 102, 138.711 102 C 137.007 102, 135.569 103.408, 133.081 107.514 C 129.727 113.048, 128.793 113.622, 122 114.320 C 119.538 114.573, 120.077 114.727, 123.817 114.840 C 128.848 114.991, 129.096 115.121, 128.423 117.250 C 126.635 122.898, 124.015 127.704, 121.472 130 L 118.704 132.500 119.445 130 C 122.340 120.241, 120.473 119.453, 114.077 127.734 C 108.938 134.387, 107.880 133.590, 111.370 125.697 C 113.352 121.217, 113.556 120.044, 112.430 119.612 C 111.639 119.308, 110.270 120.182, 109.268 121.630 C 105.175 127.544, 102.349 130.214, 100.557 129.863 C 98.873 129.533, 98.947 129.212, 101.378 126.325 C 102.901 124.516, 103.626 122.887, 103.062 122.538 C 101.988 121.874, 100.205 123.452, 95.375 129.342 L 92.250 133.152 91.555 128.516 C 91.027 124.995, 90.471 123.955, 89.243 124.192 C 88.354 124.363, 87.253 125.852, 86.798 127.502 C 86.342 129.151, 84.809 131.850, 83.392 133.500 L 80.815 136.500 81.376 132 C 81.684 129.525, 82.241 126.197, 82.613 124.605 C 83.248 121.883, 83.135 121.749, 80.697 122.361 C 78.843 122.827, 77.844 122.543, 77.184 121.364 C 76.528 120.192, 75.524 119.903, 73.698 120.361 C 71.846 120.826, 69.826 123.202, 66.433 128.907 C 61.580 137.065, 57.632 142, 55.960 142 C 54.693 142, 54.744 135.463, 56.047 130.770 C 56.617 128.718, 59.355 123.768, 62.131 119.770 C 69.561 109.068, 71.649 103.372, 69.346 100.084 C 67.337 97.215, 65.292 98.507, 61.259 105.194 C 56.396 113.256, 52.049 126.120, 51.336 134.556 C 50.672 142.405, 51.584 145, 55.006 145 C 56.839 145, 62.928 138.872, 65.067 134.876 L 66.298 132.574 67.117 134.787 C 68.293 137.966, 70.423 137.523, 73.827 133.393 L 76.800 129.787 76.800 133.327 C 76.800 135.274, 77.097 137.347, 77.459 137.934 C 78.794 140.094, 82.018 138.943, 84.241 135.512 C 87.086 131.120, 88.269 131.047, 87.469 135.314 C 87.028 137.664, 87.293 138.998, 88.380 139.900 C 90.249 141.451, 92 140.541, 92 138.018 C 92 136.992, 93.176 134.756, 94.613 133.048 C 96.666 130.608, 97.520 130.187, 98.600 131.083 C 99.356 131.710, 101.073 131.947, 102.417 131.610 C 104.396 131.113, 104.921 131.410, 105.180 133.170 C 105.668 136.482, 107.453 136.419, 111.406 132.948 C 114.757 130.006, 115 129.937, 115 131.928 C 115 134.879, 117.324 135.489, 120.540 133.382 L 123.241 131.612 122.540 135.764 C 120.613 147.169, 125.867 146.623, 134.660 134.504 C 136.730 131.650, 136.899 131.599, 138.739 133.264 C 141.095 135.396, 141.873 135.425, 144.046 133.458 C 145.609 132.044, 145.750 132.127, 145.750 134.455 C 145.750 137.368, 147.599 140, 149.645 140 C 150.415 140, 153.060 138.143, 155.522 135.873 C 158.634 133.004, 160 132.242, 160 133.373 C 160 136.024, 162.337 135.222, 164.746 131.743 C 165.981 129.959, 168.587 126.700, 170.538 124.500 L 174.084 120.500 172.125 124.547 C 168.897 131.217, 168.516 135.252, 170.911 137.419 C 172.668 139.010, 173.198 139.080, 174.608 137.910 C 176.663 136.204, 183.084 126.750, 182.550 126.216 C 182.333 125.999, 180.493 127.662, 178.461 129.911 C 176.430 132.160, 174.417 134, 173.989 134 C 172.928 134, 174.339 128.306, 176.507 123.841 C 178.390 119.962, 178.008 117, 175.625 117 C 174.833 117, 172.260 119.362, 169.907 122.250 C 167.553 125.138, 165.243 127.946, 164.773 128.490 C 164.303 129.035, 164.619 127.496, 165.475 125.071 C 166.331 122.645, 169.190 118.374, 171.829 115.580 C 177.637 109.431, 182 100.629, 182 95.062 C 182 91.741, 181.654 91, 180.104 91 C 179.061 91, 176.893 92.497, 175.287 94.326 M 176.632 97.980 C 174.373 101.394, 169 113.985, 169 115.866 C 169 116.211, 170.589 114.258, 172.532 111.526 C 176.122 106.476, 181 96.993, 181 95.062 C 181 92.903, 179.193 94.110, 176.632 97.980 M 44.212 103.124 C 39.737 105.339, 37 109.206, 37 113.313 C 37 114.639, 38.350 118.999, 40 123 C 41.650 127.001, 43 131.134, 43 132.183 C 43 135.246, 38.393 139.179, 35.231 138.815 C 31.901 138.431, 31.166 135.378, 33.349 131.003 C 35.228 127.236, 33.975 126.333, 31.106 129.387 C 27.877 132.824, 27.296 138.053, 29.883 140.394 C 32.655 142.903, 40.154 142.143, 43.482 139.017 C 48.158 134.624, 48.409 132.173, 45.044 123.769 C 40.649 112.793, 40.986 109.633, 46.973 105.646 C 52.544 101.936, 55.308 105.797, 51 111.273 C 48.768 114.111, 48.528 115, 49.994 115 C 50.540 115, 52.329 113.149, 53.968 110.886 C 57.442 106.089, 56.911 103.862, 51.872 102.105 C 50.128 101.497, 48.656 101, 48.601 101.001 C 48.545 101.001, 46.570 101.957, 44.212 103.124 M 64.227 107.107 C 59.369 117.404, 59.228 120.606, 64.001 112.260 C 66.537 107.827, 67.987 104.144, 67.743 102.760 C 67.427 100.971, 66.695 101.876, 64.227 107.107 M 142.201 115.321 C 141.540 117.148, 141.016 119.285, 141.036 120.071 C 141.088 122.127, 145.989 115.880, 145.995 113.750 C 146.003 110.772, 143.466 111.822, 142.201 115.321 M 73.042 124.750 C 70.972 129.201, 70.058 133, 71.056 133 C 72.714 133, 77.086 125.388, 76.422 123.657 C 75.510 121.280, 74.505 121.605, 73.042 124.750 M 108.079 157.583 C 108.127 158.748, 108.364 158.985, 108.683 158.188 C 108.972 157.466, 108.936 156.603, 108.604 156.271 C 108.272 155.939, 108.036 156.529, 108.079 157.583 M 118.158 167 C 118.158 168.375, 118.385 168.938, 118.662 168.250 C 118.940 167.563, 118.940 166.438, 118.662 165.750 C 118.385 165.063, 118.158 165.625, 118.158 167" stroke="none" fill="#202227" fill-rule="evenodd"/><path d="M 0 59.466 L 0 118.933 3.250 117.064 C 7.479 114.633, 15.256 113.061, 26.804 112.302 C 35.523 111.730, 36.193 111.528, 37.459 109.096 C 40.539 103.177, 45.770 100.359, 51.633 101.459 C 55.827 102.246, 57.826 105.588, 56.068 108.874 C 55.181 110.530, 55.214 111, 56.217 111 C 56.924 111, 58.557 109.014, 59.844 106.587 C 62.805 101.006, 66.414 97.561, 68.472 98.351 C 70.797 99.243, 71.453 101.851, 70.370 105.903 L 69.409 109.500 83.955 107.821 C 91.955 106.898, 106.310 106.111, 115.856 106.071 C 133.140 106, 133.220 105.990, 135.179 103.500 C 137.548 100.488, 139.996 100.267, 140.710 103 C 141.155 104.702, 142.072 104.999, 146.867 104.994 C 156.586 104.984, 169 103.743, 169 102.782 C 169 101.146, 175.046 93.016, 177.418 91.462 C 182.228 88.310, 184.457 92.521, 181.884 99.902 C 181.271 101.662, 181.030 103.363, 181.349 103.682 C 181.668 104.001, 186.641 103.528, 192.400 102.631 C 203.329 100.929, 208 101.463, 208 104.414 C 208 105.894, 207.142 106.098, 193 107.969 C 187.821 108.655, 188.684 108.718, 197.250 108.278 C 207.895 107.732, 208 107.749, 208 109.977 C 208 111.947, 208.405 112.168, 211.250 111.749 C 215.501 111.125, 218.699 112.660, 219.886 115.894 C 220.514 117.607, 220.869 98.182, 220.921 59.250 L 221 0 110.500 0 L 0 0 0 59.466 M 0.469 60 C 0.469 92.725, 0.595 106.112, 0.749 89.750 C 0.904 73.387, 0.904 46.612, 0.749 30.250 C 0.595 13.887, 0.469 27.275, 0.469 60 M 177.158 98.710 C 174.698 103.509, 174.596 104, 176.051 104 C 177.321 104, 180.266 97.286, 179.710 95.657 C 179.493 95.021, 178.345 96.395, 177.158 98.710 M 65.049 105.903 C 63.887 108.182, 63.435 110, 64.031 110 C 65.198 110, 68.424 103.091, 67.628 102.295 C 67.359 102.026, 66.199 103.650, 65.049 105.903 M 45.205 107.750 L 42.500 110.500 46.460 110.823 C 49.354 111.059, 50.768 110.671, 51.710 109.382 C 55.244 104.548, 49.717 103.162, 45.205 107.750 M 217.266 124.035 C 215.125 126.664, 214.526 126.807, 202.766 127.511 C 183.809 128.644, 178.945 130.013, 195.750 129.485 C 205.170 129.189, 210 129.387, 210 130.070 C 210 132.279, 202.098 134.287, 190.074 135.134 C 181.458 135.741, 177.140 136.468, 175.995 137.505 C 173.959 139.347, 172.060 139.361, 169.669 137.549 C 167.153 135.642, 157.601 136.564, 152.654 139.193 C 149.225 141.014, 148.644 141.072, 147.299 139.727 C 146.288 138.717, 144.421 138.342, 141.645 138.593 C 138.301 138.895, 137.983 138.796, 140 138.083 C 142.057 137.356, 141.614 137.199, 137.500 137.199 C 133.582 137.199, 133.041 137.373, 135 138 L 137.500 138.801 134.758 138.900 C 133.057 138.962, 131 140.139, 129.342 142 C 126.166 145.565, 124.640 145.752, 122.590 142.824 L 121.066 140.649 100.283 142.356 C 49.411 146.535, 39.431 147.059, 23.333 146.401 C 7.982 145.773, 7.136 145.633, 6.596 143.620 C 4.976 137.581, 6.874 135, 12.934 135 C 17.703 135, 16.696 132.455, 11.334 130.953 C 8.767 130.235, 5.167 128.330, 3.334 126.720 L -0 123.793 -0 194.401 L -0 265.009 110.250 264.754 L 220.500 264.500 220.757 194.173 C 220.898 155.494, 220.673 123.272, 220.257 122.570 C 219.704 121.638, 218.898 122.033, 217.266 124.035 M 0.474 194.500 C 0.474 233.550, 0.598 249.671, 0.750 230.323 C 0.901 210.976, 0.901 179.026, 0.750 159.323 C 0.598 139.621, 0.474 155.450, 0.474 194.500 M 110.200 138.615 C 97.477 140.169, 94.152 141.092, 103.500 140.476 C 107.350 140.222, 112.300 140.004, 114.500 139.992 C 118.189 139.971, 122.076 138.614, 120.971 137.733 C 120.712 137.526, 115.865 137.923, 110.200 138.615 M 126.500 138 C 126.160 138.550, 126.332 139, 126.882 139 C 127.432 139, 128.160 138.550, 128.500 138 C 128.840 137.450, 128.668 137, 128.118 137 C 127.568 137, 126.840 137.450, 126.500 138 M 92.813 141.683 C 93.534 141.972, 94.397 141.936, 94.729 141.604 C 95.061 141.272, 94.471 141.036, 93.417 141.079 C 92.252 141.127, 92.015 141.364, 92.813 141.683 M 71.506 154.991 C 71.133 155.594, 71.429 156.829, 72.164 157.736 C 73.117 158.911, 73.141 159.168, 72.250 158.633 C 71.563 158.220, 71 158.359, 71 158.941 C 71 159.523, 71.915 160, 73.034 160 C 74.665 160, 74.997 159.467, 74.708 157.308 C 74.322 154.426, 72.617 153.192, 71.506 154.991 M 78.640 156.750 C 77.710 158.538, 77.410 160, 77.974 160 C 78.538 160, 79.007 159.438, 79.015 158.750 C 79.026 157.841, 79.267 157.874, 79.900 158.872 C 81.567 161.504, 82.884 159.643, 81.578 156.500 L 80.332 153.500 78.640 156.750 M 85 157.125 C 85 160.044, 86.418 161.030, 87.338 158.750 C 87.741 157.750, 87.858 157.750, 87.921 158.750 C 88.086 161.361, 90 159.865, 90 157.125 C 90 154.725, 89.587 154.250, 87.500 154.250 C 85.413 154.250, 85 154.725, 85 157.125 M 94.009 156.476 C 92.838 159.556, 93.561 161.308, 95.039 158.971 C 95.669 157.975, 95.974 157.903, 95.985 158.750 C 95.993 159.438, 96.480 160, 97.067 160 C 97.709 160, 97.864 159.103, 97.455 157.750 C 96.305 153.943, 95.137 153.511, 94.009 156.476 M 100.500 155 C 100.160 155.550, 100.359 156, 100.941 156 C 101.523 156, 102 156.900, 102 158 C 102 159.100, 102.450 160, 103 160 C 103.550 160, 104 159.362, 104 158.582 C 104 157.802, 104.273 156.452, 104.607 155.582 C 105.039 154.457, 104.623 154, 103.166 154 C 102.040 154, 100.840 154.450, 100.500 155 M 108.390 155.426 C 107.480 157.797, 108.767 160.191, 110.747 159.810 C 111.854 159.597, 112.500 158.561, 112.500 157 C 112.500 154.149, 109.344 152.941, 108.390 155.426 M 116 156.927 C 116 159.217, 116.458 160, 117.796 160 C 120.275 160, 120.233 154.668, 117.750 154.190 C 116.390 153.928, 116 154.538, 116 156.927 M 123 157 C 123 158.650, 123.450 160, 124 160 C 124.550 160, 125 158.650, 125 157 C 125 155.350, 124.550 154, 124 154 C 123.450 154, 123 155.350, 123 157 M 128.015 155.750 C 128.039 158.489, 129.643 160.351, 131.399 159.677 C 132.395 159.295, 132.943 158.012, 132.850 156.281 L 132.700 153.500 132.284 156.250 C 131.763 159.686, 130 159.879, 130 156.500 C 130 155.125, 129.550 154, 129 154 C 128.450 154, 128.007 154.787, 128.015 155.750 M 136 156.933 C 136 159.544, 136.329 159.857, 139 159.781 C 141.611 159.707, 142 159.326, 142 156.848 C 142 153.928, 140.625 153.018, 139.583 155.250 C 139.117 156.250, 138.883 156.250, 138.417 155.250 C 137.363 152.993, 136 153.942, 136 156.933 M 109.446 156.087 C 109.077 156.685, 109.275 157.675, 109.887 158.287 C 110.704 159.104, 111 158.815, 111 157.200 C 111 154.785, 110.481 154.413, 109.446 156.087 M 80.219 167 C 80.268 168.737, 80.847 170, 81.593 170 C 83.407 170, 83.997 168.704, 83.335 166.174 C 82.468 162.859, 80.119 163.482, 80.219 167 M 86.552 166.695 C 86.617 168.177, 87.130 169.543, 87.693 169.731 C 88.256 169.919, 88.668 168.707, 88.608 167.038 C 88.549 165.370, 88.035 164.004, 87.467 164.002 C 86.899 164.001, 86.487 165.213, 86.552 166.695 M 91.866 167.250 C 92.195 169.306, 92.531 169.831, 92.780 168.678 C 93.153 166.954, 93.243 166.950, 94.449 168.599 C 95.593 170.164, 95.770 170.018, 96.188 167.171 C 96.646 164.053, 95.651 162.801, 94.662 165.250 C 94.259 166.250, 94.142 166.250, 94.079 165.250 C 94.036 164.563, 93.403 164, 92.673 164 C 91.736 164, 91.499 164.955, 91.866 167.250 M 99.362 165.500 C 99.045 166.325, 99.045 167.675, 99.362 168.500 C 100.001 170.165, 103 170.577, 103 169 C 103 168.450, 102.550 168, 102 168 C 101.450 168, 101 167.339, 101 166.531 C 101 165.637, 101.586 165.288, 102.500 165.638 C 103.325 165.955, 104 165.716, 104 165.107 C 104 163.440, 100.023 163.777, 99.362 165.500 M 106 167 C 106 169.333, 106.444 170, 108 170 C 109.100 170, 110 169.550, 110 169 C 110 168.450, 109.460 168, 108.800 168 C 107.867 168, 107.867 167.733, 108.800 166.800 C 110.563 165.037, 110.267 164, 108 164 C 106.444 164, 106 164.667, 106 167 M 117.333 167 C 117.333 168.650, 117.708 170, 118.167 170 C 118.625 170, 119 168.650, 119 167 C 119 165.350, 118.625 164, 118.167 164 C 117.708 164, 117.333 165.350, 117.333 167 M 122.588 164.857 C 121.719 166.263, 123.056 169.148, 124.373 168.709 C 125.853 168.216, 125.829 164.776, 124.342 164.281 C 123.705 164.068, 122.916 164.328, 122.588 164.857 M 128.500 165 C 128.160 165.550, 128.316 166, 128.847 166 C 129.378 166, 129.574 167.012, 129.281 168.250 C 128.757 170.470, 128.771 170.473, 130.343 168.500 C 131.219 167.400, 131.951 165.938, 131.968 165.250 C 132.006 163.761, 129.382 163.572, 128.500 165 M 134.776 164.697 C 134.552 165.139, 134.398 166.400, 134.434 167.500 C 134.531 170.437, 137.502 170.029, 137.491 167.080 C 137.482 164.731, 135.598 163.077, 134.776 164.697" stroke="none" fill="#f4f5f8" fill-rule="evenodd"/></svg>